<?xml version="1.0" encoding="utf-8"?>
<!-- Generator: Adobe Illustrator 23.0.2, SVG Export Plug-In . SVG Version: 6.00 Build 0)  -->
<svg version="1.1" id="Layer_1" xmlns="http://www.w3.org/2000/svg" xmlns:xlink="http://www.w3.org/1999/xlink" x="0px" y="0px"
	 viewBox="0 0 550.5 178.9" style="enable-background:new 0 0 550.5 178.9;" xml:space="preserve">
<style type="text/css">
	.st0{fill:#FFFFFF;}
	.st1{fill:none;stroke:#ED1944;stroke-width:1.24;stroke-linecap:round;}
	.st2{fill:none;stroke:#EE3242;stroke-width:1.24;stroke-linecap:round;}
	.st3{fill:none;stroke:#EF4340;stroke-width:1.24;stroke-linecap:round;}
	.st4{fill:none;stroke:#F0523D;stroke-width:1.24;stroke-linecap:round;}
	.st5{fill:none;stroke:#F15E39;stroke-width:1.24;stroke-linecap:round;}
	.st6{fill:none;stroke:#F26A35;stroke-width:1.24;stroke-linecap:round;}
	.st7{fill:none;stroke:#F47531;stroke-width:1.24;stroke-linecap:round;}
	.st8{fill:none;stroke:#F57F2B;stroke-width:1.24;stroke-linecap:round;}
	.st9{fill:none;stroke:#F7921E;stroke-width:1.24;stroke-linecap:round;}
	.st10{fill:#ED174C;}
</style>
<title>Asset 1</title>
<g>
	<g id="Layer_1-2">
		<path class="st0" d="M188.4,81.3l-0.6,3.1h-2.7l2.6,27.2h2.8l-0.5,3.1h-10.2l0.6-3.1h3.4l-0.7-7.6h-11.3l-3.8,7.6h3.2l-0.6,3.1
			h-10.2l0.6-3.1h2.8l14.1-27.2h-2.6l0.6-3.1H188.4z M181.4,84.4l-8.2,16.7h9.6L181.4,84.4z"/>
		<path class="st0" d="M214.6,90.1l-3.4,18c-0.4,2-0.6,3.8,1.5,3.8c0.6,0,1.1-0.1,1.7-0.2l-0.6,3.1c-0.9,0.1-1.8,0.2-2.7,0.2
			c-2.9,0-3.9-1.3-4-3.6c-1.6,2.5-4.4,3.9-7.3,3.9c-1.5,0-3-0.3-4.2-1.1c-1.4-0.9-2.2-2.5-2.2-4.2c0.1-1.4,0.3-2.7,0.6-4l2.4-12.7
			h-3.5l0.6-3.1h7.6l-3.1,16.2c-0.2,0.9-0.3,1.8-0.3,2.6c0,2.3,1.5,3.2,3.5,3.2c5.4,0,6.6-5.8,7.3-9l1.9-10h-3.6l0.6-3.1L214.6,90.1
			z"/>
		<path class="st0" d="M222.6,101.5c-1.5-1-3.3-2.2-3.3-5.3c0-3.6,2.7-6.8,7.7-6.8c4,0,5.4,1.8,6.3,3l0.6-2.3h3l-1.5,8h-3.2
			c0.1-1.2-0.1-2.4-0.7-3.4c-0.8-1.5-2.4-2.3-4.1-2.3c-2.5,0-4.2,1.6-4.2,3.5c0,1.6,1.2,2.4,2.4,3.3l3.3,2.1
			c2.8,1.9,4.8,3.6,4.8,6.8c0,4-3,7.3-8.4,7.3c-4,0-5.4-2-6.1-3.1l-0.5,2.5h-3.2l1.6-8.4h3.2c-0.3,1.4,0,2.8,0.7,4
			c0.4,0.8,1.5,2.1,4.3,2.1c1.9,0,4.5-0.9,4.5-3.9c0-2.1-1.6-3.3-3.4-4.4L222.6,101.5z"/>
		<path class="st0" d="M247.7,84.1l-1.1,6h5.4l-0.6,3.1H246l-2.8,14.2c-0.2,0.8-0.3,1.7-0.4,2.6c0,1.7,1.2,2.1,2.6,2.1
			c0.7,0,1.4-0.1,2.1-0.2l-0.6,3c-0.8,0.2-1.7,0.2-2.5,0.2c-1.5,0-5.7-0.2-5.7-4.3c0-0.8,0.1-1.5,0.3-2.2l2.9-15.3h-3.7l0.6-3.1h3.6
			l1-5.3L247.7,84.1z"/>
		<path class="st0" d="M260.4,94.2c1.3-2,3.2-4.8,6.9-4.8c0.7,0,1.5,0.1,2.2,0.3l-0.8,4c-0.6-0.1-1.2-0.2-1.8-0.2
			c-2.5,0.1-4.7,1.5-5.9,3.6c-1.1,2-1.9,4.3-2.3,6.6l-1.5,7.9h3.6l-0.6,3.1h-11.2l0.6-3.1h3.6l3.5-18.5h-3.6l0.6-3.1h7.1L260.4,94.2
			z"/>
		<path class="st0" d="M290,114.6c-0.9,0.2-1.8,0.3-2.7,0.3c-3.2,0-3.9-1.3-4.2-3.4c-1.6,2.5-4.4,3.9-7.3,3.7c-6.2,0-8-5.2-8-9.6
			c0-7.1,4.2-16.1,11.9-16.1c2.5-0.2,4.8,1,6.2,3c0.2,0.3,0.4,0.7,0.5,1l0.7-3.4h3.7l-3.5,18.5c-0.1,0.5-0.2,1.1-0.2,1.6
			c-0.1,0.8,0.5,1.6,1.3,1.7c0.1,0,0.2,0,0.4,0c0.6,0,1.2-0.1,1.8-0.3L290,114.6z M284.7,96c-0.5-2.1-2.5-3.6-4.7-3.5
			c-6.5,0-8.4,10.2-8.4,13.3c0,5.2,3,6.3,4.8,6.3c1.5,0,3-0.5,4.1-1.5c2.6-2.2,4.4-7.9,4.4-12.3C285,97.5,284.9,96.8,284.7,96z"/>
		<path class="st0" d="M295.2,81.3h7.5l-5.2,27.5c-0.1,0.6-0.2,1.1-0.2,1.7c0,0.8,0.6,1.5,1.5,1.6c0.1,0,0.1,0,0.2,0
			c0.7,0,1.3-0.1,1.9-0.3l-0.6,3c-1.1,0.2-2.2,0.4-3.3,0.4c-0.5,0-1-0.1-1.5-0.2c-1.5-0.5-2.5-1.9-2.4-3.5c0-1,0.2-1.9,0.4-2.8
			l4.6-24.2h-3.5L295.2,81.3z"/>
		<path class="st0" d="M305.3,90.1h7.5l-3.6,18.7c-0.1,0.5-0.2,0.9-0.2,1.4c-0.1,0.8,0.4,1.5,1.2,1.7c0.1,0,0.3,0,0.4,0
			c0.7,0,1.3-0.1,2-0.3l-0.6,3.1c-0.9,0.3-1.9,0.5-2.9,0.5c-1.1,0.1-2.3-0.3-3.2-1c-0.8-0.7-1.2-1.8-1.1-2.8c0-0.7,0.1-1.3,0.2-1.9
			l3.1-16.2h-3.6L305.3,90.1z M309.9,81.3h4.8l-0.8,3.9h-4.8L309.9,81.3z"/>
		<path class="st0" d="M337,114.6c-0.9,0.2-1.8,0.3-2.7,0.3c-3.2,0-3.9-1.3-4.2-3.4c-1.6,2.5-4.4,3.9-7.3,3.7c-6.2,0-8-5.2-8-9.6
			c0-7.1,4.2-16.1,11.9-16.1c2.5-0.2,4.8,1,6.2,3c0.2,0.3,0.4,0.7,0.5,1l0.7-3.4h3.7l-3.5,18.5c-0.1,0.5-0.2,1.1-0.2,1.6
			c-0.1,0.8,0.5,1.6,1.4,1.7c0.1,0,0.2,0,0.3,0c0.6,0,1.2-0.1,1.8-0.3L337,114.6z M331.8,96c-0.5-2.1-2.5-3.6-4.7-3.5
			c-6.5,0-8.4,10.2-8.4,13.3c0,5.2,3,6.3,4.8,6.3c1.5,0,3-0.5,4.1-1.5c2.6-2.2,4.4-7.9,4.4-12.3C332,97.5,331.9,96.8,331.8,96z"/>
		<path class="st0" d="M359.5,99.3l-0.8,3.9H341l0.7-3.9H359.5z"/>
		<path class="st0" d="M376.3,81.3l-0.6,3.1h-3.6l-5.1,27.2h3.5l-0.5,3.1h-11.3l0.6-3.1h3.5l5.1-27.2h-3.5l0.6-3.1H376.3z"/>
		<path class="st0" d="M395.6,108.7c-0.1,0.5-0.2,1.1-0.2,1.6c0,0.9,0.8,1.6,1.6,1.5c0.1,0,0.1,0,0.2,0c0.6,0,1.3-0.1,1.9-0.4
			l-0.6,3.1c-0.8,0.3-1.7,0.4-2.6,0.4c-2.7,0-4.6-1.1-4.6-3.7c0.1-1.2,0.3-2.4,0.6-3.5l1.6-8.6c0.2-1,0.4-2,0.4-3.1
			c0-2.8-2-3.4-3.6-3.4c-2.3,0.1-4.4,1.2-5.7,3.1c-1.2,1.9-2,4-2.4,6.2l-1.8,9.6h3.6l-0.6,3.1h-11.1l0.6-3.1h3.5l3.5-18.5h-3.5
			l0.6-3.1h7.2l-0.8,3.8c1.6-2.9,4.7-4.6,8-4.4c5.8,0,6.6,3.8,6.6,5.7c0,0.8-0.1,1.7-0.3,2.5L395.6,108.7z"/>
		<path class="st0" d="M417.5,81.3h7.5l-5.2,27.4c-0.2,0.6-0.3,1.2-0.3,1.8c0,0.5,0,1.4,1.8,1.4c0.6,0,1.2-0.1,1.7-0.3l-0.6,3
			c-1,0.2-2,0.3-3,0.3c-3.3,0-3.8-1.8-4-3.2c-0.8,1-1.7,1.8-2.8,2.4c-1.4,0.7-3,1.1-4.6,1.1c-1.8,0.1-3.5-0.5-4.9-1.7
			c-2.7-2.3-2.9-5.5-2.9-7.5c0-4.2,1.4-9.4,4.4-12.9c1.9-2.4,4.8-3.7,7.8-3.7c1.4-0.1,2.7,0.3,3.9,0.9c1.2,0.7,2.1,1.7,2.6,3l1.7-9
			h-3.7L417.5,81.3z M406.9,96.6c-1.6,2.7-2.5,5.8-2.6,8.9c0,2.6,0.9,6.6,4.9,6.6c1.5,0,3.4-0.5,5.3-3.3c2-3,3-6.4,3.1-10
			c0-4-2.1-6.3-4.8-6.3S408.2,94.3,406.9,96.6z"/>
		<path class="st0" d="M437.5,89.4c5.5,0,8.8,3.4,8.8,9.4c0,3.2-1.1,9.6-4.9,13.4c-2.1,2.1-4.9,3.2-7.8,3.1c-1.7,0-3.4-0.4-4.9-1.1
			c-0.9-0.5-4-2.6-4-8.2C424.8,101.1,427.3,89.4,437.5,89.4z M428.8,106c0,3.6,1.7,6.2,4.9,6.2c5.5,0,8.6-7.7,8.6-13.4
			c0-2.5-0.8-6.3-4.8-6.3C431.4,92.5,428.8,101.4,428.8,106z"/>
		<path class="st0" d="M467.9,108.7c-0.1,0.5-0.2,1.1-0.2,1.6c0,0.9,0.8,1.6,1.6,1.5c0.1,0,0.1,0,0.2,0c0.6,0,1.3-0.1,1.9-0.4
			l-0.6,3.1c-0.8,0.3-1.7,0.4-2.6,0.4c-2.7,0-4.6-1.1-4.6-3.7c0.1-1.2,0.3-2.4,0.6-3.5l1.7-8.6c0.2-1,0.4-2,0.4-3.1
			c0-2.8-2-3.4-3.6-3.4c-2.3,0.1-4.4,1.2-5.7,3.1c-1.2,1.9-2,4-2.4,6.2l-1.8,9.6h3.6l-0.6,3.1h-11.1l0.6-3.1h3.5l3.5-18.5h-3.5
			l0.6-3.1h7.2l-0.8,3.8c1.6-2.9,4.7-4.6,8-4.4c5.8,0,6.6,3.8,6.6,5.7c0,0.8-0.1,1.7-0.3,2.5L467.9,108.7z"/>
		<path class="st0" d="M493.2,106.9c-1,2.8-3.2,8.4-11.3,8.4c-3.5,0-5-0.9-6.2-1.9c-0.6-0.6-2.7-2.5-2.7-7.3c0.1-4,1.3-7.9,3.5-11.3
			c2-3.4,5.8-5.5,9.8-5.3c1.4,0,4.8,0.1,7,2.8c0.5,0.6,1.9,2.2,1.9,6.1c0,1.4-0.2,2.7-0.5,4.1h-17.2c-0.2,1.2-0.3,2.4-0.4,3.5
			c0,1.3,0.2,2.5,0.7,3.7c0.9,1.7,2.7,2.7,4.6,2.6c1.4,0.1,2.7-0.3,3.8-1.1c1.5-1.1,2.6-2.6,3.2-4.3L493.2,106.9z M491.1,99.5
			c0-0.5,0.1-1,0.1-1.6c0-1-0.1-2-0.5-2.9c-0.9-1.7-2.8-2.8-4.7-2.7c-1.3,0-2.5,0.3-3.6,1c-2.7,1.7-3.8,4.9-4.2,6.2L491.1,99.5z"/>
		<path class="st0" d="M501.5,101.5c-1.5-1-3.3-2.2-3.3-5.3c0-3.6,2.7-6.8,7.7-6.8c4,0,5.4,1.8,6.3,3l0.6-2.4h3.1l-1.5,8h-3.2
			c0.1-1.2-0.1-2.4-0.6-3.4c-0.8-1.5-2.4-2.3-4.1-2.3c-2.5,0-4.2,1.6-4.2,3.5c0,1.6,1.2,2.4,2.4,3.3l3.3,2.1
			c2.8,1.9,4.8,3.6,4.8,6.8c0,4-3,7.3-8.5,7.3c-4,0-5.4-2-6.1-3.1l-0.5,2.5h-3.2l1.6-8.4h3.2c-0.3,1.4,0,2.8,0.7,4
			c0.4,0.8,1.5,2.1,4.3,2.1c1.9,0,4.5-0.9,4.5-3.9c0-2.1-1.7-3.3-3.4-4.4L501.5,101.5z"/>
		<path class="st0" d="M518.4,90.1h7.5l-3.6,18.7c-0.1,0.5-0.2,0.9-0.2,1.4c-0.1,0.8,0.5,1.5,1.3,1.7c0.1,0,0.3,0,0.4,0
			c0.7,0,1.3-0.1,2-0.3l-0.6,3.1c-0.9,0.3-1.9,0.5-2.9,0.5c-1.1,0.1-2.3-0.3-3.2-1c-0.8-0.7-1.2-1.8-1.2-2.9c0-0.7,0.1-1.3,0.2-1.9
			l3.1-16.2h-3.6L518.4,90.1z M523,81.3h4.8l-0.8,3.9h-4.8L523,81.3z"/>
		<path class="st0" d="M549.7,114.6c-0.9,0.2-1.8,0.3-2.7,0.3c-3.2,0-3.9-1.3-4.2-3.4c-1.6,2.5-4.4,3.9-7.3,3.7c-6.2,0-8-5.2-8-9.6
			c0-7.1,4.2-16.1,11.9-16.1c2.5-0.2,4.8,1,6.2,3c0.2,0.3,0.4,0.7,0.5,1l0.7-3.4h3.7l-3.5,18.6c-0.1,0.5-0.2,1.1-0.2,1.6
			c-0.1,0.8,0.5,1.6,1.3,1.7c0.1,0,0.2,0,0.4,0c0.6,0,1.2-0.1,1.8-0.3L549.7,114.6z M544.5,96c-0.5-2.1-2.5-3.6-4.7-3.5
			c-6.5,0-8.4,10.2-8.4,13.3c0,5.2,3,6.3,4.8,6.3c1.5,0,3-0.5,4.1-1.5c2.7-2.2,4.3-7.9,4.3-12.3C544.7,97.5,544.7,96.8,544.5,96z"/>
		<path class="st0" d="M464.5,142.7c-0.6,2.5-1.8,4.9-3.4,6.9c-1.8,2.1-4.5,3.2-7.3,3.1c-5.3,0-8.6-3.2-8.6-10.4
			c0-5.7,2.9-20.6,13.1-20.6c5.1,0,6.2,3.5,6.6,4.6l0.4,1.3l1.1-5.2h1.3l-1.7,9h-1.5c0-1.6,0.2-8.3-6.1-8.3
			c-2.7,0.1-5.3,1.5-6.8,3.8c-3,4-4.6,11.4-4.6,15.7c-0.1,2.2,0.4,4.3,1.5,6.2c1.2,1.8,3.2,2.8,5.3,2.7c2.2,0.1,4.3-0.8,5.8-2.3
			c1.7-1.8,2.9-4,3.4-6.4L464.5,142.7z"/>
		<path class="st0" d="M483.7,144.4c-0.6,2-2.6,8.3-9.6,8.3c-5,0-6.7-4.1-6.7-8.1c0-3.6,0.9-7.2,2.8-10.3c1.6-2.5,4-4.7,7.8-4.7
			c1.5,0,3,0.4,4.2,1.4c2,1.5,2.6,4,2.6,6.5c0,1.1-0.1,2.3-0.3,3.4h-15.2c-0.2,1.2-0.4,2.5-0.4,3.7c0,1.4,0.2,2.8,0.8,4.1
			c0.8,1.7,2.6,2.8,4.5,2.7c1.6,0,3.1-0.5,4.4-1.5c1.6-1.5,2.7-3.3,3.3-5.4L483.7,144.4z M483,139.6c0-0.7,0.1-1.4,0.1-2
			c0.1-1.2-0.2-2.5-0.6-3.6c-0.8-1.8-2.6-3-4.5-2.9c-2.2,0-4.3,1.2-5.6,3c-1.2,1.7-2.1,3.6-2.6,5.6L483,139.6z"/>
		<path class="st0" d="M502.4,148.7c-0.1,0.4-0.1,0.8-0.1,1.1c0,1.2,1.1,1.3,1.6,1.3c0.7,0,1.3-0.1,2-0.2l-0.2,1.3
			c-0.8,0.2-1.7,0.3-2.5,0.3c-2.1,0-2.5-1.1-2.5-2c0-0.7,0.1-1.4,0.3-2.2l2.1-11.2c0.2-0.8,0.3-1.7,0.3-2.5c0-3-2.1-3.7-4-3.7
			c-2.4,0-4.6,1.2-5.9,3.2c-1.6,2-2.6,4.5-2.9,7l-1.9,9.8h3.5l-0.2,1.3h-8.6l0.3-1.3h3.4l3.7-19.5h-3.4l0.2-1.3h5.1l-0.8,4
			c1.1-1.5,3.1-4.6,7.6-4.6c3.6,0,5.4,2,5.4,4.8c0,1.1-0.2,2.1-0.4,3.1L502.4,148.7z"/>
		<path class="st0" d="M514.8,124.8l-1,5.3h5l-0.2,1.3h-5l-3.1,16c-0.1,0.6-0.2,1.2-0.2,1.9c0,1.8,1.7,1.9,2.7,1.9
			c0.6,0,1.3-0.1,1.9-0.2l-0.3,1.3c-0.7,0.1-1.4,0.1-2.2,0.1c-1.2,0-3.8-0.1-3.8-2.9c0.1-0.9,0.2-1.9,0.4-2.8l2.9-15.4h-3.7l0.2-1.3
			h3.8l0.9-5L514.8,124.8z"/>
		<path class="st0" d="M525,132.9c0.6-1,1.5-1.8,2.5-2.4c0.9-0.6,2-0.9,3.2-0.9c0.7,0,1.3,0.1,2,0.2l-0.3,1.7
			c-0.6-0.1-1.2-0.2-1.8-0.2c-1.9,0-3.7,0.9-4.7,2.5c-1.1,1.5-1.5,3.3-2,6.3l-2,10.8h3.8l-0.2,1.3h-8.9l0.2-1.3h3.5l3.7-19.5h-3.5
			l0.2-1.3h5.1L525,132.9z"/>
		<path class="st0" d="M547.6,144.4c-0.6,2-2.6,8.3-9.6,8.3c-5,0-6.7-4.1-6.7-8.1c0-3.6,1-7.2,2.8-10.3c1.6-2.5,4-4.7,7.8-4.7
			c1.5,0,3,0.4,4.2,1.4c2,1.5,2.6,4,2.6,6.5c0,1.1-0.1,2.3-0.3,3.4h-15.2c-0.3,1.2-0.4,2.5-0.4,3.7c0,1.4,0.2,2.8,0.8,4.1
			c0.8,1.7,2.6,2.8,4.5,2.7c1.6,0,3.1-0.5,4.4-1.5c1.6-1.5,2.7-3.3,3.3-5.4L547.6,144.4z M546.9,139.6c0-0.7,0.1-1.4,0.1-2
			c0.1-1.2-0.1-2.5-0.6-3.6c-0.8-1.8-2.6-3-4.5-2.9c-2.2,0-4.3,1.2-5.6,3c-1.2,1.7-2.1,3.6-2.6,5.6L546.9,139.6z"/>
		<path class="st0" d="M180.6,41.2h19.9l-1.7,8.8h-1.5l1.4-7.5h-7.7l-5.2,27.4h3.6l-0.2,1.3h-8.9l0.3-1.3h3.7l5.2-27.4h-7.5
			l-1.5,7.5h-1.5L180.6,41.2z"/>
		<path class="st0" d="M203,41.2h5.2l-2.3,11.6c1.6-2.7,4.5-4.3,7.6-4.2c1.3-0.1,2.6,0.3,3.6,0.9c1.2,0.9,2,2.3,1.9,3.8
			c0,1.1-0.2,2.2-0.4,3.2l-2,10.5c-0.1,0.5-0.2,1-0.2,1.6c0,1.4,1,1.4,1.8,1.4c0.6,0,1.3-0.1,1.9-0.2l-0.3,1.4
			c-0.8,0.1-1.6,0.2-2.4,0.2c-1.1,0-2.7-0.2-2.7-2.2c0.1-0.8,0.2-1.6,0.3-2.4l1.9-9.8c0.3-1.2,0.4-2.4,0.5-3.6
			c0-2.8-2.1-3.6-4.1-3.6c-1.8,0-3.6,0.6-5,1.9c-2.8,2.4-3.6,6.8-4.2,9.9l-1.6,8.2h3.6l-0.2,1.3h-8.8l0.2-1.3h3.6l5.3-27.5h-3.5
			L203,41.2z"/>
		<path class="st0" d="M237.8,63.5c-0.6,2-2.6,8.3-9.6,8.3c-5,0-6.7-4.1-6.7-8.1c0-3.6,1-7.2,2.9-10.3c1.6-2.5,4-4.7,7.8-4.7
			c1.5,0,3,0.4,4.2,1.4c2,1.5,2.6,4,2.6,6.5c0,1.1-0.1,2.3-0.3,3.4h-15.2c-0.3,1.2-0.4,2.5-0.4,3.7c0,1.4,0.2,2.8,0.8,4.1
			c0.8,1.7,2.6,2.8,4.5,2.7c1.6,0,3.2-0.5,4.4-1.5c1.6-1.5,2.7-3.3,3.3-5.4L237.8,63.5z M237.2,58.6c0-0.7,0.1-1.4,0.1-2
			c0-1.2-0.2-2.5-0.6-3.7c-0.8-1.8-2.6-3-4.6-2.9c-2.2,0-4.3,1.2-5.6,3c-1.2,1.7-2.1,3.6-2.6,5.6L237.2,58.6z"/>
		<path class="st1" d="M91.5,0.6c0,0,25.8,48.6-26.7,111.7"/>
		<path class="st1" d="M91.5,0.6c0,0,29.9,55.4-20,113.6"/>
		<path class="st2" d="M91.5,0.6c0,0,33.3,61.2-13.2,115.5"/>
		<path class="st3" d="M91.5,0.6c0,0,37.4,67.4-5.9,117.8"/>
		<path class="st3" d="M91.5,0.6c0,0,41.9,73.6,2,120.1"/>
		<path class="st4" d="M91.5,0.6c0,0,47,79.6,10.4,122.2"/>
		<path class="st5" d="M91.5,0.6c0,0,50.7,90.5,19.4,125.2"/>
		<path class="st6" d="M91.5,0.6c0,0,54.1,96.3,28.8,127.3"/>
		<path class="st7" d="M91.5,0.6c0,0,57.6,102.7,38.8,129.4"/>
		<path class="st8" d="M91.5,0.6c0,0,38.2,68.8,47,103.6"/>
		<line class="st9" x1="91.5" y1="0.6" x2="143" y2="95.9"/>
		<line class="st9" x1="91.5" y1="0.6" x2="139.7" y2="107"/>
		<line class="st9" x1="91.5" y1="0.6" x2="135.6" y2="117.9"/>
		<line class="st9" x1="91.5" y1="0.6" x2="130.4" y2="130.5"/>
		<line class="st9" x1="91.5" y1="0.6" x2="125.2" y2="149.5"/>
		<line class="st9" x1="91.5" y1="0.6" x2="114.8" y2="151.4"/>
		<line class="st9" x1="91.5" y1="0.6" x2="104.4" y2="153.3"/>
		<line class="st9" x1="91.5" y1="0.6" x2="94.1" y2="155.2"/>
		<line class="st9" x1="91.5" y1="0.6" x2="83.7" y2="157.1"/>
		<line class="st9" x1="91.5" y1="0.6" x2="73.3" y2="159.1"/>
		<line class="st9" x1="91.5" y1="0.6" x2="62.9" y2="161"/>
		<line class="st9" x1="91.5" y1="0.6" x2="52.5" y2="162.9"/>
		<line class="st9" x1="91.5" y1="0.6" x2="42.2" y2="164.8"/>
		<line class="st9" x1="91.5" y1="0.6" x2="31.8" y2="166.7"/>
		<line class="st9" x1="91.5" y1="0.6" x2="21.4" y2="168.6"/>
		<line class="st9" x1="91.5" y1="0.6" x2="11" y2="170.5"/>
		<line class="st9" x1="91.5" y1="0.6" x2="0.6" y2="172.4"/>
		<polygon class="st10" points="160.4,40.6 110,178.9 115.6,178.9 166,40.6 		"/>
	</g>
</g>
</svg>
