<svg xmlns="http://www.w3.org/2000/svg" xmlns:xlink="http://www.w3.org/1999/xlink" viewBox="0 0 1751.07 1355.52"><defs><style>.cls-1,.cls-3{fill:none;}.cls-2{clip-path:url(#clip-path);}.cls-3{stroke:#9f9e9e;stroke-linecap:round;stroke-width:0.5px;}</style><clipPath id="clip-path" transform="translate(0 0)"><rect class="cls-1" width="1751.07" height="1355.52"/></clipPath></defs><title>Asset 1</title><g id="Layer_2" data-name="Layer 2"><g id="Layer_1-2" data-name="Layer 1"><g class="cls-2"><path class="cls-3" d="M.25.25S449.89,1382.88,1561.67,750" transform="translate(0 0)"/><path class="cls-3" d="M52.18,48.65s399.35,1332.92,1458.2,730.21" transform="translate(0 0)"/><path class="cls-3" d="M104.12,97s349,1283.22,1355,710.64" transform="translate(0 0)"/><path class="cls-3" d="M156.05,145.44S454.8,1379,1407.81,836.5" transform="translate(0 0)"/><path class="cls-3" d="M208,193.83S456.43,1377.64,1356.52,865.32" transform="translate(0 0)"/><path class="cls-3" d="M259.92,242.23s198.15,1134.1,1045.31,651.91" transform="translate(0 0)"/><path class="cls-3" d="M311.85,290.63S459.7,1375,1254,923" transform="translate(0 0)"/><path class="cls-3" d="M363.78,339s97.55,1034.69,838.88,612.76" transform="translate(0 0)"/><path class="cls-3" d="M415.72,387.42s47.23,985,735.65,593.18" transform="translate(0 0)"/><path class="cls-3" d="M467.65,435.81s-3.08,935.28,632.43,573.61" transform="translate(0 0)"/><path class="cls-3" d="M519.58,484.21s-53.39,885.57,529.22,554" transform="translate(0 0)"/><path class="cls-3" d="M571.52,532.61s-103.73,835.86,426,534.45" transform="translate(0 0)"/><path class="cls-3" d="M623.47,581s-154.1,786.16,322.75,514.88" transform="translate(0 0)"/><path class="cls-3" d="M675.45,629.4S471,1365.84,894.94,1124.7" transform="translate(0 0)"/><path class="cls-3" d="M727.46,677.79s-255,686.74,116.19,475.73" transform="translate(0 0)"/><path class="cls-3" d="M779.56,726.19s-305.54,637,12.8,456.16" transform="translate(0 0)"/><path class="cls-3" d="M831.53,774.59s-355.76,587.31-90.62,436.58" transform="translate(0 0)"/><path class="cls-3" d="M883.46,823s-405.94,537.6-193.94,417" transform="translate(0 0)"/><path class="cls-3" d="M935.39,871.38s-456.16,487.88-297.2,397.43" transform="translate(0 0)"/><path class="cls-3" d="M987.33,919.77s-506.4,438.16-400.45,377.86" transform="translate(0 0)"/><path class="cls-3" d="M1039.26,968.17s-556.64,388.44-503.68,358.28" transform="translate(0 0)"/><line class="cls-3" x1="1091.19" y1="1016.57" x2="484.29" y2="1355.27"/><path class="cls-3" d="M1750.82,1266.77s-174.55-527.59-598.14-283.51" transform="translate(0 0)"/><path class="cls-3" d="M1719.41,1254.87s-143.75-515.19-547.2-282.72" transform="translate(0 0)"/><path class="cls-3" d="M1688,1243S1575,740.19,1191.75,961" transform="translate(0 0)"/><path class="cls-3" d="M1656.59,1231.08s-82.16-490.38-445.31-281.16" transform="translate(0 0)"/><path class="cls-3" d="M1625.18,1219.18s-51.35-478-394.36-280.37" transform="translate(0 0)"/><path class="cls-3" d="M1593.77,1207.28s-20.54-465.57-343.42-279.58" transform="translate(0 0)"/><path class="cls-3" d="M1562.36,1195.38s10.27-453.16-292.48-278.8" transform="translate(0 0)"/><path class="cls-3" d="M1531,1183.48s41.1-440.75-241.53-278" transform="translate(0 0)"/><path class="cls-3" d="M1499.52,1171.59s72-428.35-190.57-277.23" transform="translate(0 0)"/><path class="cls-3" d="M1468.08,1159.69s102.84-415.94-139.59-276.44" transform="translate(0 0)"/><path class="cls-3" d="M1436.61,1147.79S1570.37,744.26,1348,872.13" transform="translate(0 0)"/><path class="cls-3" d="M1405.09,1135.89S1569.84,744.77,1367.56,861" transform="translate(0 0)"/><path class="cls-3" d="M1373.55,1124s195.72-378.71,13.59-274.08" transform="translate(0 0)"/><path class="cls-3" d="M1342.14,1112.09s226.4-366.3,64.67-273.3" transform="translate(0 0)"/><path class="cls-3" d="M1310.73,1100.2s257.11-353.9,115.68-272.52" transform="translate(0 0)"/><path class="cls-3" d="M1279.31,1088.3S1567.16,746.81,1446,816.57" transform="translate(0 0)"/><path class="cls-3" d="M1247.9,1076.4s318.59-329.07,217.65-270.94" transform="translate(0 0)"/><path class="cls-3" d="M1216.49,1064.5s349.34-316.66,268.6-270.16" transform="translate(0 0)"/><path class="cls-3" d="M1185.08,1052.6s380.1-304.25,319.56-269.37" transform="translate(0 0)"/><path class="cls-3" d="M1153.67,1040.71s410.86-291.84,370.51-268.59" transform="translate(0 0)"/><path class="cls-3" d="M1122.26,1028.81S1563.89,749.38,1543.71,761" transform="translate(0 0)"/></g><line class="cls-3" x1="1090.85" y1="1016.91" x2="1563.25" y2="749.9"/></g></g></svg>