<svg xmlns="http://www.w3.org/2000/svg" viewBox="0 0 50.81 50.23"><defs><style>.cls-1{fill:#f7921e;}</style></defs><title>Asset 1</title><g id="Layer_2" data-name="Layer 2"><g id="Layer_1-2" data-name="Layer 1"><path class="cls-1" d="M42.72,45a6.35,6.35,0,1,0-6.35-6.35A6.36,6.36,0,0,0,42.72,45m0-14.43a8.09,8.09,0,1,1-8.08,8.08,8.09,8.09,0,0,1,8.08-8.08M25.4,48.5a6.35,6.35,0,1,0-6.35-6.35A6.35,6.35,0,0,0,25.4,48.5m0-14.44a8.09,8.09,0,1,1-8.08,8.09,8.09,8.09,0,0,1,8.08-8.09m0-8.08A12.13,12.13,0,1,0,13.28,13.86,12.14,12.14,0,0,0,25.4,26m0-26A13.86,13.86,0,1,1,11.55,13.86,13.85,13.85,0,0,1,25.4,0M8.08,45a6.35,6.35,0,1,0-6.35-6.35A6.36,6.36,0,0,0,8.08,45m0-14.43A8.09,8.09,0,1,1,0,38.68,8.09,8.09,0,0,1,8.08,30.6M24.5,32.34a.87.87,0,1,1,.87.86.87.87,0,0,1-.87-.86m0-2.89a.87.87,0,1,1,.87.87.87.87,0,0,1-.87-.87M12.43,30.9a.87.87,0,1,1,.86.87.87.87,0,0,1-.86-.87m1.85-2.21a.87.87,0,1,1,.87.87.86.86,0,0,1-.87-.87m1.86-2.21a.87.87,0,0,1,1.73,0,.87.87,0,1,1-1.73,0M36.59,31a.87.87,0,1,1,.86.87.86.86,0,0,1-.86-.87m-1.86-2.21a.87.87,0,1,1,.87.87.87.87,0,0,1-.87-.87m-1.86-2.21a.87.87,0,1,1,.87.86.87.87,0,0,1-.87-.86M8.09,37.86a1,1,0,1,0,0-2.08,1,1,0,0,0,0,2.08M4,40.54a3.72,3.72,0,0,1,1.56-1.95l.3-.16a2.81,2.81,0,0,1-.52-1.61,2.78,2.78,0,0,1,5.55,0,2.74,2.74,0,0,1-.52,1.61l.31.16a3.72,3.72,0,0,1,1.56,1.95.86.86,0,0,1-1.64.55,2.06,2.06,0,0,0-.86-1,3.08,3.08,0,0,0-3.24,0,2,2,0,0,0-.86,1,.87.87,0,0,1-1.1.54A.85.85,0,0,1,4,40.54m21.42.78a1,1,0,0,0,0-2.08,1,1,0,0,0,0,2.08M21.27,44a3.79,3.79,0,0,1,1.56-2l.31-.16a2.72,2.72,0,0,1-.52-1.61,2.77,2.77,0,1,1,5,1.61l.3.16a3.79,3.79,0,0,1,1.56,2,.86.86,0,1,1-1.64.55,2,2,0,0,0-.86-1,3.14,3.14,0,0,0-3.24,0,2,2,0,0,0-.86,1,.87.87,0,0,1-1.1.55.88.88,0,0,1-.54-1.1m21.44-6.14a1,1,0,1,0-1-1,1,1,0,0,0,1,1m-4.12,2.68a3.72,3.72,0,0,1,1.56-1.95l.31-.16a2.74,2.74,0,0,1-.52-1.61,2.77,2.77,0,1,1,5.54,0A2.8,2.8,0,0,1,45,38.43l.3.16a3.72,3.72,0,0,1,1.56,1.95.85.85,0,0,1-.54,1.09.86.86,0,0,1-1.1-.54,2,2,0,0,0-.86-1,3.08,3.08,0,0,0-3.24,0,2.06,2.06,0,0,0-.86,1,.86.86,0,0,1-1.64-.55M20.9,13a7.43,7.43,0,0,0,1.54,1.73,4.75,4.75,0,0,1,.88,1.07,3.16,3.16,0,0,1,.41,1.57v.53h3.4v-.53a3.26,3.26,0,0,1,.19-1.1,4,4,0,0,1,.92-1.39,13,13,0,0,0,1.43-1.48,3.52,3.52,0,0,0,.64-2.19A4.49,4.49,0,0,0,28.9,8.06a5,5,0,0,0-7,0,4.48,4.48,0,0,0-1.4,3.15A3.57,3.57,0,0,0,20.9,13m2.84,8.17a.34.34,0,0,0,.33.34h2.72a.33.33,0,0,0,.24-.1.33.33,0,0,0,.1-.24V19.63h-3.4Zm-3-14.35a6.75,6.75,0,0,1,9.41,0A6.18,6.18,0,0,1,32,11.21a5.52,5.52,0,0,1-.59,2.6A8.45,8.45,0,0,1,29.61,16a3.39,3.39,0,0,0-.56.69,1.45,1.45,0,0,0-.19.72v3.8a2.07,2.07,0,0,1-2.06,2.07H24.07A2.08,2.08,0,0,1,22,21.17V17.38a1.26,1.26,0,0,0-.09-.51,2.16,2.16,0,0,0-.55-.78,14.88,14.88,0,0,1-1.61-1.68,5.21,5.21,0,0,1-1-3.2A6.23,6.23,0,0,1,20.7,6.82"/></g></g></svg>