<svg xmlns="http://www.w3.org/2000/svg" viewBox="0 0 41.16 35.43"><defs><style>.cls-1{fill:#f7921e;}</style></defs><title>Asset 4</title><g id="Layer_2" data-name="Layer 2"><g id="Layer_1-2" data-name="Layer 1"><path class="cls-1" d="M41.16,20.58a20.43,20.43,0,0,1-6,14.55,1,1,0,0,1-.33.22,1,1,0,0,1-.38.08,1,1,0,0,1-.72-.3L30.53,32A1,1,0,0,1,32,30.53L34.4,33a18.49,18.49,0,0,0,4.71-11.38H35.67a1,1,0,1,1,0-2h3.44A18.49,18.49,0,0,0,34.39,8.2L32,10.63a1,1,0,0,1-.71.29,1,1,0,0,1-.72-.29,1,1,0,0,1,0-1.43L33,6.77A18.49,18.49,0,0,0,21.59,2.05V5.49a1,1,0,1,1-2,0V2.05A18.49,18.49,0,0,0,8.2,6.77L10.63,9.2a1,1,0,0,1,0,1.43,1,1,0,0,1-.72.29,1,1,0,0,1-.71-.29L6.77,8.2A18.49,18.49,0,0,0,2.05,19.57H5.49a1,1,0,1,1,0,2H2.05A18.43,18.43,0,0,0,6.76,33L9.2,30.53A1,1,0,0,1,10.63,32L7.51,35.08l0,.05a1,1,0,0,1-.71.3,1,1,0,0,1-.72-.3H6a20.56,20.56,0,0,1-.1-29A.52.52,0,0,1,6,6a.52.52,0,0,1,.11-.1A20.55,20.55,0,0,1,35,5.93a.52.52,0,0,1,.11.1.52.52,0,0,1,.1.11,20.54,20.54,0,0,1,5.93,14.44m-19,.79a2,2,0,0,0-.26-2.08A2.29,2.29,0,0,0,21.3,19l-.07,0h0a2,2,0,0,0-.63-.1,1.74,1.74,0,0,0-1.56.95,2,2,0,0,0,.27,2.08,2.22,2.22,0,0,0,1.29.45,1.72,1.72,0,0,0,1.55-.95M25.23,9a1,1,0,0,1,.56,1.32l-2.9,7.24.22.15a1.62,1.62,0,0,1,.37.37,4,4,0,0,1,.46,4.24,3.76,3.76,0,0,1-3.36,2.06A4.3,4.3,0,0,1,18,23.47a1.7,1.7,0,0,1-.36-.35,4,4,0,0,1-.46-4.25,3.75,3.75,0,0,1,3.36-2.06,2.83,2.83,0,0,1,.41,0l2.92-7.3A1,1,0,0,1,25.23,9"/></g></g></svg>