<svg xmlns="http://www.w3.org/2000/svg" viewBox="0 0 46.47 47.74"><defs><style>.cls-1{fill:#f7921e;}</style></defs><title>Asset 7</title><g id="Layer_2" data-name="Layer 2"><g id="Layer_1-2" data-name="Layer 1"><path class="cls-1" d="M8.36,20.05H19.52V29.6H8.36ZM6.51,23.87H0v21H3.72V43H1.86V25.78H6.51v5.73H21.38V18.14H6.51Zm31.6,5.73H27V20.05H38.11Zm-13-11.46V31.51H40V25.78h4.64V43H42.75v1.91h3.72v-21H40V18.14Zm3.72,5.73h7.44V22H28.81Zm0,3.82h3.72V25.78H28.81ZM26,14.32H31.6v1.91h1.86V12.41H26ZM13,16.23h1.86V14.32h5.58V12.41H13ZM17.66,1.91H28.81V5.73H17.66ZM15.8,7.64h6.51v6.68h1.86V7.64h6.5V0H15.8ZM33.46,33.42H31.6v1.91H26v1.91h7.43Zm-13,1.91H14.87V33.42H13v3.82h7.44ZM23.24,42a1.91,1.91,0,1,1-1.86,1.91A1.88,1.88,0,0,1,23.24,42m0,5.73a3.82,3.82,0,0,0,.93-7.5V35.33H22.31v4.91a3.82,3.82,0,0,0,.93,7.5m11.15-20h1.86V25.78H34.39ZM10.22,23.87h7.44V22H10.22Zm3.72,3.82h3.72V25.78H13.94Zm-3.72,0h1.86V25.78H10.22Z"/></g></g></svg>