<svg xmlns="http://www.w3.org/2000/svg" viewBox="0 0 46.68 46.68"><defs><style>.cls-1{fill:#f7921e;}</style></defs><title>Asset 2</title><g id="Layer_2" data-name="Layer 2"><g id="Layer_1-2" data-name="Layer 1"><path class="cls-1" d="M39.68,12.45A5.45,5.45,0,1,1,45.12,7a5.46,5.46,0,0,1-5.44,5.45M18.67,35a7,7,0,1,1,7-7,7,7,0,0,1-7,7m-14,10.11A3.11,3.11,0,1,1,7.78,42a3.11,3.11,0,0,1-3.11,3.11m35-14.78a5.45,5.45,0,1,1-5.45,5.45,5.45,5.45,0,0,1,5.45-5.45M1.56,6.22a4.67,4.67,0,1,1,4.66,4.67A4.66,4.66,0,0,1,1.56,6.22M39.68,0a7,7,0,0,0-5.52,11.3l-10,10.13a8.51,8.51,0,0,0-9.83-.77L9.68,11.4a6.35,6.35,0,1,0-1.39.69L13,21.58a8.53,8.53,0,0,0-.93,11.9L7.37,38.21a4.69,4.69,0,1,0,1.1,1.1l4.73-4.73a8.55,8.55,0,0,0,12.92-2.37l6.57,3.29c0,.09,0,.19,0,.29a7,7,0,1,0,.26-1.91l-6.18-3.09a8.51,8.51,0,0,0-1.52-8.26l10-10.12A6.92,6.92,0,0,0,39.68,14a7,7,0,0,0,0-14M23.34,3.89a2.34,2.34,0,1,1,2.33,2.33,2.33,2.33,0,0,1-2.33-2.33m6.22,0a3.89,3.89,0,1,0-3.89,3.89,3.89,3.89,0,0,0,3.89-3.89m-14,9.34a2.34,2.34,0,1,1,2.33,2.33,2.34,2.34,0,0,1-2.33-2.33m6.22,0a3.89,3.89,0,1,0-3.89,3.89,3.89,3.89,0,0,0,3.89-3.89M5.06,28A1.95,1.95,0,1,1,3.11,30,1.94,1.94,0,0,1,5.06,28M1.56,30a3.5,3.5,0,1,0,3.5-3.5A3.5,3.5,0,0,0,1.56,30m.77-9.72a.78.78,0,1,1,.78-.78.78.78,0,0,1-.78.78m0-3.11a2.33,2.33,0,1,0,2.34,2.33,2.33,2.33,0,0,0-2.34-2.33m35.79,6.22A3.11,3.11,0,1,1,35,20.23a3.11,3.11,0,0,1,3.11,3.11m-7.78,0A4.67,4.67,0,1,0,35,18.67a4.68,4.68,0,0,0-4.67,4.67M24.12,45.12A3.11,3.11,0,1,1,27.23,42a3.11,3.11,0,0,1-3.11,3.11m0-7.78A4.67,4.67,0,1,0,28.79,42a4.68,4.68,0,0,0-4.67-4.67m21-19.45a1.56,1.56,0,1,1-1.55-1.55,1.55,1.55,0,0,1,1.55,1.55m-4.66,0a3.11,3.11,0,1,0,3.11-3.11,3.12,3.12,0,0,0-3.11,3.11"/></g></g></svg>