<svg xmlns="http://www.w3.org/2000/svg" xmlns:xlink="http://www.w3.org/1999/xlink" viewBox="0 0 888.25 363.83"><defs><style>.cls-1,.cls-3{fill:none;}.cls-2{clip-path:url(#clip-path);}.cls-3{stroke:#f7921e;stroke-miterlimit:10;stroke-width:2.25px;}.cls-4{fill:#ed1944;}</style><clipPath id="clip-path" transform="translate(-11.59 -0.87)"><rect class="cls-1" width="899.84" height="363.63"/></clipPath></defs><title>Asset 11</title><g id="Layer_2" data-name="Layer 2"><g id="Layer_1-2" data-name="Layer 1"><g class="cls-2"><path class="cls-3" d="M43.8,59.48c-1.2,0-13.31,0-14.5,0-3.62,0-5.52,1.9-5.53,5.51,0,5-.05,18.6,0,20.36a2.46,2.46,0,0,0,4.92,0c0-.44,0-10.38,0-14.91,0-1.06,1.21-.83,1.21,0,0,.56,0,27.8,0,41.22,0,2.37,1.1,3.74,3,3.79s3.11-1.31,3.12-3.82c0-3.51,0-19.61,0-22.49a.44.44,0,1,1,.87,0c0,2.88,0,19,0,22.49,0,2.51,1.14,3.85,3.12,3.82s3-1.42,3-3.79c0-13.42,0-40.66,0-41.22,0-.87,1.22-1.1,1.22,0,0,4.53,0,14.47,0,14.91a2.46,2.46,0,0,0,4.91,0c.08-1.76,0-15.35,0-20.36C49.31,61.38,47.42,59.49,43.8,59.48Z" transform="translate(-11.59 -0.87)"/><path class="cls-3" d="M41.48,51.09a4.94,4.94,0,1,0-5,4.82A4.84,4.84,0,0,0,41.48,51.09Z" transform="translate(-11.59 -0.87)"/><path class="cls-3" d="M64.73,215.67H50.23c-3.61,0-5.51,1.9-5.53,5.51,0,5-.05,18.6,0,20.37a2.37,2.37,0,0,0,2.45,2.38,2.41,2.41,0,0,0,2.47-2.36c0-.44,0-10.38,0-14.91,0-1,1.22-.82,1.22,0,0,.56,0,27.8,0,41.22,0,2.37,1.1,3.74,3,3.79S57,270.4,57,267.9c0-3.52,0-19.62,0-22.5a.44.44,0,1,1,.87,0c0,2.88,0,19,0,22.5,0,2.5,1.13,3.84,3.12,3.81s3-1.42,3-3.79c0-13.42,0-40.66,0-41.22,0-.86,1.22-1.09,1.22,0,0,4.53,0,14.47,0,14.91a2.4,2.4,0,0,0,2.48,2.36,2.36,2.36,0,0,0,2.43-2.38c.08-1.77,0-15.35,0-20.37C70.24,217.57,68.35,215.68,64.73,215.67Z" transform="translate(-11.59 -0.87)"/><path class="cls-3" d="M62.42,207.28a4.94,4.94,0,1,0-5,4.82A4.84,4.84,0,0,0,62.42,207.28Z" transform="translate(-11.59 -0.87)"/><path class="cls-3" d="M79,59.48c-1.2,0-13.31,0-14.5,0C60.91,59.49,59,61.38,59,65c0,5,0,18.6,0,20.36a2.46,2.46,0,0,0,4.92,0c0-.44,0-10.38,0-14.91,0-1.06,1.21-.83,1.21,0,0,.56,0,27.8,0,41.22,0,2.37,1.1,3.74,3,3.79s3.11-1.31,3.12-3.82c0-3.51,0-19.61,0-22.49a.44.44,0,1,1,.87,0c0,2.88,0,19,0,22.49,0,2.51,1.14,3.85,3.12,3.82s3-1.42,3-3.79c0-13.42,0-40.66,0-41.22,0-.87,1.22-1.1,1.22,0,0,4.53,0,14.47,0,14.91a2.46,2.46,0,0,0,4.91,0c.08-1.76,0-15.35,0-20.36C84.54,61.38,82.65,59.49,79,59.48Z" transform="translate(-11.59 -0.87)"/><path class="cls-3" d="M76.71,51.09a4.94,4.94,0,1,0-5,4.82A4.84,4.84,0,0,0,76.71,51.09Z" transform="translate(-11.59 -0.87)"/><path class="cls-3" d="M46.67,136.9c-1.19,0-13.3,0-14.5,0-3.61,0-5.51,1.9-5.52,5.51,0,5-.06,18.6,0,20.36a2.46,2.46,0,0,0,4.92,0c0-.44,0-10.38,0-14.91,0-1.06,1.22-.83,1.22,0,0,.56,0,27.8,0,41.22,0,2.37,1.1,3.74,3,3.79s3.1-1.31,3.11-3.82c0-3.51,0-19.61,0-22.49a.44.44,0,1,1,.87,0c0,2.88,0,19,0,22.49,0,2.51,1.13,3.85,3.12,3.82s3-1.42,3-3.79c0-13.42,0-40.66,0-41.22,0-.87,1.22-1.1,1.22,0,.05,4.53,0,14.47.05,14.91a2.45,2.45,0,0,0,4.9,0c.08-1.76,0-15.35,0-20.36C52.18,138.8,50.3,136.91,46.67,136.9Z" transform="translate(-11.59 -0.87)"/><path class="cls-3" d="M44.36,128.51a4.94,4.94,0,1,0-5,4.82A4.84,4.84,0,0,0,44.36,128.51Z" transform="translate(-11.59 -0.87)"/><path class="cls-3" d="M81.9,136.9c-1.19,0-13.3,0-14.5,0-3.61,0-5.51,1.9-5.52,5.51,0,5-.06,18.6,0,20.36a2.46,2.46,0,0,0,4.92,0c0-.44,0-10.38,0-14.91,0-1.06,1.22-.83,1.22,0,0,.56,0,27.8,0,41.22,0,2.37,1.1,3.74,3,3.79s3.1-1.31,3.11-3.82c0-3.51,0-19.61,0-22.49a.44.44,0,1,1,.87,0c0,2.88,0,19,0,22.49,0,2.51,1.13,3.85,3.12,3.82s3-1.42,3-3.79c0-13.42,0-40.66,0-41.22,0-.87,1.22-1.1,1.22,0,0,4.53,0,14.47,0,14.91a2.45,2.45,0,0,0,4.9,0c.08-1.76,0-15.35,0-20.36C87.41,138.8,85.53,136.91,81.9,136.9Z" transform="translate(-11.59 -0.87)"/><path class="cls-3" d="M79.59,128.51a4.94,4.94,0,1,0-5,4.82A4.84,4.84,0,0,0,79.59,128.51Z" transform="translate(-11.59 -0.87)"/><path class="cls-4" d="M27.65,312.79v43.42h4.68v7.42H13.61v-7.42H18V321.65l-6.41,2.59V316.1L21,312.79Z" transform="translate(-11.59 -0.87)"/><path class="cls-4" d="M60.05,312.79v43.42h4.68v7.42H46v-7.42H50.4V321.65L44,324.24V316.1l9.36-3.31Z" transform="translate(-11.59 -0.87)"/><path class="cls-4" d="M75.46,312.79h29.23v13.54H96.84v-6.12H83.45L82.3,333.82a15,15,0,0,1,9.64-3.32c9.29,0,15,7.2,15,16.92a17.8,17.8,0,0,1-4.6,12.39c-4.25,4.46-10.09,4.9-13,4.9a20.27,20.27,0,0,1-10.8-2.81c-6.19-3.82-6.62-9.44-6.91-12.82H81a9.92,9.92,0,0,0,2.38,5.69,7.19,7.19,0,0,0,5.68,2.45c4.68,0,8.43-3.31,8.43-9.22,0-6.7-3.75-10.08-8.28-10.08a8.57,8.57,0,0,0-6.91,3.46l-9.22-1.08Z" transform="translate(-11.59 -0.87)"/><path class="cls-4" d="M23.1,7a6,6,0,0,1,.66-2.73C24.84,2.1,27.15.87,30.12.87c4.38,0,6.69,2.61,6.69,5.67,0,2.67-1.77,4.62-2.94,5.88-1.83,2-4.32,4.59-6.69,7h6.6v-3H37V22.5H22.56V19c2.82-2.79,3.51-3.45,6.84-6.93,1.74-1.77,3.42-3.48,3.42-5.55C32.82,4.83,31.53,4,30,4A2.8,2.8,0,0,0,27,7Z" transform="translate(-11.59 -0.87)"/><path class="cls-4" d="M52.5,1.56C53.67,2.1,57.09,4.2,57.09,12c0,3.57-.93,6.9-2.58,8.7a7.25,7.25,0,0,1-5.58,2.22c-6,0-7.92-5.46-7.92-11a18.8,18.8,0,0,1,1-6.27A7,7,0,0,1,49,.87,8.39,8.39,0,0,1,52.5,1.56ZM46.17,5.49C45.15,7.2,45,10.8,45,11.88c0,2.34.42,5.07,1.32,6.48a3.06,3.06,0,0,0,2.76,1.47c1.74,0,3.42-.78,3.87-5.88.06-.72.09-1.47.09-2.19a15.67,15.67,0,0,0-.87-5.52A3.26,3.26,0,0,0,49.05,4,3,3,0,0,0,46.17,5.49Z" transform="translate(-11.59 -0.87)"/><path class="cls-4" d="M67.44,1.32V19.41h2V22.5h-7.8V19.41h1.83V5L60.75,6.09V2.7l3.9-1.38Z" transform="translate(-11.59 -0.87)"/><path class="cls-4" d="M75.06,1.32H87.24V7H84V4.41H78.39l-.48,5.67a6.27,6.27,0,0,1,4-1.38c3.87,0,6.27,3,6.27,7.05a7.4,7.4,0,0,1-1.92,5.16,7.37,7.37,0,0,1-5.43,2,8.41,8.41,0,0,1-4.5-1.17,6.15,6.15,0,0,1-2.88-5.34h3.9a4.12,4.12,0,0,0,1,2.37,3,3,0,0,0,2.37,1c2,0,3.51-1.38,3.51-3.84,0-2.79-1.56-4.2-3.45-4.2a3.58,3.58,0,0,0-2.88,1.44l-3.84-.45Z" transform="translate(-11.59 -0.87)"/><path class="cls-4" d="M187.79,326.33a14.64,14.64,0,0,1,1.59-6.56c2.59-5.11,8.13-8.06,15.26-8.06,10.52,0,16.06,6.26,16.06,13.61,0,6.41-4.25,11.09-7.06,14.11-4.39,4.9-10.37,11-16,16.78h15.84v-7.13h7.7v14.55H186.5v-8.36c6.77-6.69,8.42-8.28,16.41-16.63,4.18-4.25,8.21-8.35,8.21-13.32,0-4.11-3.09-6.05-6.84-6.05-6.55,0-7.05,5.26-7.2,7.06Z" transform="translate(-11.59 -0.87)"/><path class="cls-4" d="M228.11,326.33c.43-2.74.94-6.7,4.18-10,2.3-2.23,6.62-4.61,13.32-4.61,9.07,0,17.57,4.39,17.57,13.54,0,8.64-5.47,10.8-9.22,12.24,2.16.72,5.11,1.65,7.27,4a12,12,0,0,1,3,8.13,15.07,15.07,0,0,1-2.16,7.64c-3.39,5.4-9.87,7.41-16.28,7.41a25.91,25.91,0,0,1-7.05-.93,13.9,13.9,0,0,1-8.43-6,18,18,0,0,1-2.88-8.71H237a11.46,11.46,0,0,0,2.16,5.76,8.41,8.41,0,0,0,6.48,2.74c3.74,0,9-2.09,9-8.14s-4.25-8.57-9.94-8.57a32.29,32.29,0,0,0-3.31.22v-7.28c1.15.08,1.95.15,2.88.15,6.7,0,9.15-3.53,9.15-7.49,0-5.69-4.76-7.49-7.71-7.49a9,9,0,0,0-5.26,1.73,8.57,8.57,0,0,0-3.09,5.69Z" transform="translate(-11.59 -0.87)"/><path class="cls-4" d="M288.52,312.79v43.42h4.68v7.42H274.48v-7.42h4.39V321.65l-6.41,2.59V316.1l9.36-3.31Z" transform="translate(-11.59 -0.87)"/><path class="cls-4" d="M211.28,7a6,6,0,0,1,.66-2.73C213,2.1,215.33.87,218.3.87c4.38,0,6.69,2.61,6.69,5.67,0,2.67-1.77,4.62-2.94,5.88-1.83,2-4.32,4.59-6.69,7H222v-3h3.21V22.5H210.74V19c2.82-2.79,3.51-3.45,6.84-6.93,1.74-1.77,3.42-3.48,3.42-5.55C221,4.83,219.71,4,218.15,4a2.8,2.8,0,0,0-3,2.94Z" transform="translate(-11.59 -0.87)"/><path class="cls-4" d="M240.68,1.56c1.17.54,4.59,2.64,4.59,10.41,0,3.57-.93,6.9-2.58,8.7a7.25,7.25,0,0,1-5.58,2.22c-6,0-7.92-5.46-7.92-11a18.8,18.8,0,0,1,1-6.27,7,7,0,0,1,7-4.77A8.39,8.39,0,0,1,240.68,1.56Zm-6.33,3.93c-1,1.71-1.14,5.31-1.14,6.39,0,2.34.42,5.07,1.32,6.48a3.06,3.06,0,0,0,2.76,1.47c1.74,0,3.42-.78,3.87-5.88.06-.72.09-1.47.09-2.19a15.67,15.67,0,0,0-.87-5.52A3.26,3.26,0,0,0,237.23,4,3,3,0,0,0,234.35,5.49Z" transform="translate(-11.59 -0.87)"/><path class="cls-4" d="M255.62,1.32V19.41h1.95V22.5h-7.8V19.41h1.83V5l-2.67,1.08V2.7l3.9-1.38Z" transform="translate(-11.59 -0.87)"/><path class="cls-4" d="M272.45,7c-.33-2.07-1.56-3-2.94-3a3.74,3.74,0,0,0-3.42,2.76,11,11,0,0,0-.57,3.78,6.24,6.24,0,0,1,4.65-1.8c4,0,6.69,2.88,6.69,6.93,0,4.26-2.85,7.26-7.41,7.26a8.13,8.13,0,0,1-3.06-.54,6.63,6.63,0,0,1-3.75-3.78,15.73,15.73,0,0,1-1-6c0-.6,0-1.2.06-1.8a14.15,14.15,0,0,1,2.22-7.26c.84-1.14,2.34-2.67,5.76-2.67A7.29,7.29,0,0,1,273.83,2a5.71,5.71,0,0,1,2.49,5Zm-6.81,8.67c0,3.12,2,4.29,3.66,4.29a3.51,3.51,0,0,0,3.57-3.84c0-2.4-1.23-4.11-3.57-4.11A3.33,3.33,0,0,0,265.64,15.63Z" transform="translate(-11.59 -0.87)"/><path class="cls-3" d="M288.1,59.48c-1.19,0-13.31,0-14.5,0-3.61,0-5.51,1.9-5.53,5.51,0,5-.05,18.6,0,20.36a2.38,2.38,0,0,0,2.44,2.39A2.41,2.41,0,0,0,273,85.38c0-.44,0-10.38,0-14.91,0-1.06,1.22-.83,1.22,0,0,.56,0,27.8,0,41.22,0,2.37,1.1,3.74,3,3.79s3.1-1.31,3.11-3.82c0-3.51,0-19.61,0-22.49a.43.43,0,1,1,.86,0c0,2.88,0,19,0,22.49,0,2.51,1.13,3.85,3.12,3.82s3-1.42,3-3.79c0-13.42,0-40.66,0-41.22,0-.87,1.22-1.1,1.22,0,0,4.53,0,14.47,0,14.91a2.46,2.46,0,0,0,4.91,0c.08-1.76,0-15.35,0-20.36C293.61,61.38,291.72,59.49,288.1,59.48Z" transform="translate(-11.59 -0.87)"/><path class="cls-3" d="M285.79,51.09a4.94,4.94,0,1,0-5,4.82A4.84,4.84,0,0,0,285.79,51.09Z" transform="translate(-11.59 -0.87)"/><path class="cls-3" d="M214,59.48c-1.19,0-13.31,0-14.5,0-3.61,0-5.51,1.9-5.53,5.51,0,5-.05,18.6,0,20.36a2.38,2.38,0,0,0,2.44,2.39,2.41,2.41,0,0,0,2.48-2.36c0-.44,0-10.38,0-14.91,0-1.06,1.22-.83,1.22,0,0,.56,0,27.8,0,41.22,0,2.37,1.1,3.74,3,3.79s3.1-1.31,3.11-3.82c0-3.51,0-19.61,0-22.49a.43.43,0,1,1,.86,0c0,2.88,0,19,0,22.49,0,2.51,1.13,3.85,3.12,3.82s3-1.42,3-3.79c0-13.42,0-40.66,0-41.22,0-.87,1.22-1.1,1.22,0,0,4.53,0,14.47,0,14.91a2.46,2.46,0,0,0,4.91,0c.08-1.76,0-15.35,0-20.36C219.47,61.38,217.58,59.49,214,59.48Z" transform="translate(-11.59 -0.87)"/><path class="cls-3" d="M211.65,51.09a4.94,4.94,0,1,0-5,4.82A4.85,4.85,0,0,0,211.65,51.09Z" transform="translate(-11.59 -0.87)"/><path class="cls-3" d="M176.89,59.48c-1.19,0-13.31,0-14.5,0-3.61,0-5.51,1.9-5.53,5.51,0,5-.05,18.6,0,20.36a2.38,2.38,0,0,0,2.44,2.39,2.41,2.41,0,0,0,2.48-2.36c0-.44,0-10.38,0-14.91,0-1.06,1.22-.83,1.22,0,0,.56,0,27.8,0,41.22,0,2.37,1.1,3.74,3,3.79s3.1-1.31,3.11-3.82c0-3.51,0-19.61,0-22.49a.43.43,0,1,1,.86,0c0,2.88,0,19,0,22.49,0,2.51,1.13,3.85,3.12,3.82s3-1.42,3-3.79c0-13.42,0-40.66,0-41.22,0-.87,1.22-1.1,1.22,0,0,4.53,0,14.47,0,14.91a2.46,2.46,0,0,0,4.91,0c.08-1.76,0-15.35,0-20.36C182.4,61.38,180.51,59.49,176.89,59.48Z" transform="translate(-11.59 -0.87)"/><path class="cls-3" d="M174.57,51.09a4.9,4.9,0,0,0-4.9-5,4.89,4.89,0,1,0-.12,9.78A4.83,4.83,0,0,0,174.57,51.09Z" transform="translate(-11.59 -0.87)"/><path class="cls-3" d="M325.17,59.48c-1.19,0-13.31,0-14.5,0-3.61,0-5.51,1.9-5.53,5.51,0,5-.05,18.6,0,20.36a2.38,2.38,0,0,0,2.44,2.39,2.41,2.41,0,0,0,2.48-2.36c0-.44,0-10.38,0-14.91,0-1.06,1.22-.83,1.22,0,0,.56,0,27.8,0,41.22,0,2.37,1.1,3.74,3,3.79s3.1-1.31,3.11-3.82c0-3.51,0-19.61,0-22.49a.43.43,0,1,1,.86,0c0,2.88,0,19,0,22.49,0,2.51,1.13,3.85,3.12,3.82s3-1.42,3-3.79c0-13.42,0-40.66,0-41.22,0-.87,1.22-1.1,1.22,0,0,4.53,0,14.47,0,14.91a2.46,2.46,0,0,0,4.91,0c.08-1.76,0-15.35,0-20.36C330.68,61.38,328.79,59.49,325.17,59.48Z" transform="translate(-11.59 -0.87)"/><path class="cls-3" d="M322.86,51.09a4.94,4.94,0,1,0-5,4.82A4.84,4.84,0,0,0,322.86,51.09Z" transform="translate(-11.59 -0.87)"/><path class="cls-3" d="M251,59.48c-1.19,0-13.31,0-14.5,0-3.61,0-5.51,1.9-5.53,5.51,0,5-.05,18.6,0,20.36a2.38,2.38,0,0,0,2.44,2.39A2.41,2.41,0,0,0,236,85.38c0-.44,0-10.38,0-14.91,0-1.06,1.22-.83,1.22,0,0,.56,0,27.8,0,41.22,0,2.37,1.1,3.74,3,3.79s3.1-1.31,3.11-3.82c0-3.51,0-19.61,0-22.49a.43.43,0,1,1,.86,0c0,2.88,0,19,0,22.49,0,2.51,1.13,3.85,3.12,3.82s3-1.42,3-3.79c0-13.42,0-40.66,0-41.22,0-.87,1.22-1.1,1.22,0,0,4.53,0,14.47,0,14.91a2.46,2.46,0,0,0,4.91,0c.08-1.76,0-15.35,0-20.36C256.54,61.38,254.65,59.49,251,59.48Z" transform="translate(-11.59 -0.87)"/><path class="cls-3" d="M248.72,51.09a4.94,4.94,0,1,0-5,4.82A4.84,4.84,0,0,0,248.72,51.09Z" transform="translate(-11.59 -0.87)"/><path class="cls-3" d="M304.44,136.9c-1.19,0-13.3,0-14.5,0-3.61,0-5.51,1.9-5.52,5.51,0,5-.06,18.6,0,20.36a2.46,2.46,0,0,0,4.92,0c0-.44,0-10.38,0-14.91,0-1.06,1.22-.83,1.22,0,0,.56,0,27.8,0,41.22,0,2.37,1.1,3.74,3,3.79s3.1-1.31,3.12-3.82c0-3.51,0-19.61,0-22.49a.44.44,0,1,1,.87,0c0,2.88,0,19,0,22.49,0,2.51,1.13,3.85,3.12,3.82s3-1.42,3-3.79c0-13.42,0-40.66,0-41.22,0-.87,1.22-1.1,1.22,0,0,4.53,0,14.47,0,14.91a2.46,2.46,0,0,0,4.91,0c.07-1.76,0-15.35,0-20.36C310,138.8,308.07,136.91,304.44,136.9Z" transform="translate(-11.59 -0.87)"/><path class="cls-3" d="M302.13,128.51a4.94,4.94,0,1,0-5,4.82A4.84,4.84,0,0,0,302.13,128.51Z" transform="translate(-11.59 -0.87)"/><path class="cls-3" d="M230.29,136.9c-1.19,0-13.3,0-14.5,0-3.61,0-5.51,1.9-5.53,5.51,0,5,0,18.6,0,20.36a2.38,2.38,0,0,0,2.45,2.39,2.41,2.41,0,0,0,2.47-2.36c0-.44,0-10.38,0-14.91,0-1.06,1.22-.83,1.22,0,0,.56,0,27.8,0,41.22,0,2.37,1.1,3.74,3,3.79s3.1-1.31,3.11-3.82c0-3.51,0-19.61,0-22.49a.44.44,0,1,1,.87,0c0,2.88,0,19,0,22.49,0,2.51,1.13,3.85,3.12,3.82s3-1.42,3-3.79c0-13.42,0-40.66,0-41.22,0-.87,1.22-1.1,1.22,0,0,4.53,0,14.47,0,14.91a2.4,2.4,0,0,0,2.48,2.36,2.37,2.37,0,0,0,2.43-2.39c.08-1.76,0-15.35,0-20.36C235.8,138.8,233.91,136.91,230.29,136.9Z" transform="translate(-11.59 -0.87)"/><path class="cls-3" d="M228,128.51a4.94,4.94,0,1,0-5,4.82A4.84,4.84,0,0,0,228,128.51Z" transform="translate(-11.59 -0.87)"/><path class="cls-3" d="M193.22,136.9c-1.2,0-13.31,0-14.51,0-3.61,0-5.51,1.9-5.52,5.51,0,5-.05,18.6,0,20.36a2.46,2.46,0,0,0,4.92,0c0-.44,0-10.38,0-14.91,0-1.06,1.22-.83,1.22,0,0,.56,0,27.8,0,41.22,0,2.37,1.1,3.74,3,3.79s3.11-1.31,3.12-3.82c0-3.51,0-19.61,0-22.49a.44.44,0,1,1,.87,0c0,2.88,0,19,0,22.49,0,2.51,1.13,3.85,3.12,3.82s3-1.42,3-3.79c0-13.42,0-40.66,0-41.22,0-.87,1.22-1.1,1.22,0,0,4.53,0,14.47,0,14.91a2.46,2.46,0,0,0,4.91,0c.07-1.76,0-15.35,0-20.36C198.73,138.8,196.84,136.91,193.22,136.9Z" transform="translate(-11.59 -0.87)"/><path class="cls-3" d="M190.9,128.51a4.94,4.94,0,1,0-5,4.82A4.84,4.84,0,0,0,190.9,128.51Z" transform="translate(-11.59 -0.87)"/><path class="cls-3" d="M267.37,136.9c-1.2,0-13.31,0-14.5,0-3.62,0-5.52,1.9-5.53,5.51,0,5-.05,18.6,0,20.36a2.46,2.46,0,0,0,4.92,0c0-.44,0-10.38,0-14.91,0-1.06,1.21-.83,1.21,0,0,.56,0,27.8,0,41.22,0,2.37,1.1,3.74,3,3.79s3.11-1.31,3.12-3.82c0-3.51,0-19.61,0-22.49a.44.44,0,1,1,.87,0c0,2.88,0,19,0,22.49,0,2.51,1.14,3.85,3.12,3.82s3-1.42,3-3.79c0-13.42,0-40.66,0-41.22,0-.87,1.22-1.1,1.22,0,0,4.53,0,14.47,0,14.91a2.46,2.46,0,0,0,4.91,0c.08-1.76,0-15.35,0-20.36C272.88,138.8,271,136.91,267.37,136.9Z" transform="translate(-11.59 -0.87)"/><path class="cls-3" d="M265.05,128.51a4.94,4.94,0,1,0-5,4.82A4.84,4.84,0,0,0,265.05,128.51Z" transform="translate(-11.59 -0.87)"/><path class="cls-3" d="M290.15,215.67H275.64c-3.61,0-5.51,1.9-5.52,5.51,0,5-.05,18.6,0,20.37a2.46,2.46,0,0,0,4.92,0c0-.44,0-10.38,0-14.91,0-1,1.21-.82,1.21,0,0,.56,0,27.8,0,41.22,0,2.37,1.09,3.74,3,3.79s3.11-1.31,3.12-3.81c0-3.52,0-19.62,0-22.5a.44.44,0,1,1,.87,0c0,2.88,0,19,0,22.5,0,2.5,1.14,3.84,3.12,3.81s3-1.42,3-3.79c0-13.42,0-40.66,0-41.22,0-.86,1.22-1.09,1.22,0,0,4.53,0,14.47,0,14.91a2.46,2.46,0,0,0,4.91,0c.08-1.77,0-15.35,0-20.37C295.66,217.57,293.77,215.68,290.15,215.67Z" transform="translate(-11.59 -0.87)"/><path class="cls-3" d="M287.83,207.28a4.94,4.94,0,1,0-5,4.82A4.83,4.83,0,0,0,287.83,207.28Z" transform="translate(-11.59 -0.87)"/><path class="cls-3" d="M215.76,215.67h-14.5c-3.61,0-5.51,1.9-5.52,5.51,0,5-.06,18.6,0,20.37a2.46,2.46,0,0,0,4.92,0c0-.44,0-10.38,0-14.91,0-1,1.22-.82,1.22,0,0,.56,0,27.8,0,41.22,0,2.37,1.1,3.74,3,3.79s3.1-1.31,3.12-3.81c0-3.52,0-19.62,0-22.5a.44.44,0,1,1,.87,0c0,2.88,0,19,0,22.5,0,2.5,1.13,3.84,3.12,3.81s3-1.42,3-3.79c0-13.42,0-40.66,0-41.22,0-.86,1.22-1.09,1.22,0,.05,4.53,0,14.47.05,14.91a2.39,2.39,0,0,0,2.47,2.36,2.36,2.36,0,0,0,2.43-2.38c.08-1.77,0-15.35,0-20.37C221.28,217.57,219.39,215.68,215.76,215.67Z" transform="translate(-11.59 -0.87)"/><path class="cls-3" d="M213.45,207.28a4.94,4.94,0,1,0-5,4.82A4.83,4.83,0,0,0,213.45,207.28Z" transform="translate(-11.59 -0.87)"/><path class="cls-3" d="M253,215.67H238.45c-3.61,0-5.51,1.9-5.52,5.51,0,5-.05,18.6,0,20.37a2.46,2.46,0,0,0,4.92,0c0-.44,0-10.38,0-14.91,0-1,1.22-.82,1.22,0,0,.56,0,27.8,0,41.22,0,2.37,1.1,3.74,3,3.79s3.11-1.31,3.12-3.81c0-3.52,0-19.62,0-22.5a.44.44,0,1,1,.87,0c0,2.88,0,19,0,22.5,0,2.5,1.13,3.84,3.12,3.81s3-1.42,3-3.79c0-13.42,0-40.66,0-41.22,0-.86,1.22-1.09,1.22,0,0,4.53,0,14.47,0,14.91a2.46,2.46,0,0,0,4.91,0c.07-1.77,0-15.35,0-20.37C258.47,217.57,256.58,215.68,253,215.67Z" transform="translate(-11.59 -0.87)"/><path class="cls-3" d="M250.64,207.28a4.94,4.94,0,1,0-5,4.82A4.83,4.83,0,0,0,250.64,207.28Z" transform="translate(-11.59 -0.87)"/><path class="cls-4" d="M435.69,326.33c.43-2.74.93-6.7,4.17-10,2.31-2.23,6.63-4.61,13.32-4.61,9.08,0,17.57,4.39,17.57,13.54,0,8.64-5.47,10.8-9.21,12.24,2.16.72,5.11,1.65,7.27,4a12,12,0,0,1,2.95,8.13,15,15,0,0,1-2.16,7.64c-3.38,5.4-9.86,7.41-16.27,7.41a26,26,0,0,1-7.06-.93,13.85,13.85,0,0,1-8.42-6A17.76,17.76,0,0,1,435,349h9.57a11.46,11.46,0,0,0,2.16,5.76,8.42,8.42,0,0,0,6.48,2.74c3.75,0,9-2.09,9-8.14s-4.24-8.57-9.93-8.57a31.88,31.88,0,0,0-3.31.22v-7.28c1.15.08,1.94.15,2.88.15,6.69,0,9.14-3.53,9.14-7.49,0-5.69-4.75-7.49-7.7-7.49a8.94,8.94,0,0,0-5.26,1.73,8.59,8.59,0,0,0-3.1,5.69Z" transform="translate(-11.59 -0.87)"/><path class="cls-4" d="M506.82,338c6.7,2.23,8.86,6.34,8.86,11.59,0,8.57-7.27,15.13-18.58,15.13s-18.93-6.12-18.93-14.84c0-3.53,1.79-11.09,11.52-12.38a15.62,15.62,0,0,1-6.77-3.6,12.61,12.61,0,0,1-3.24-8.57,13.19,13.19,0,0,1,1.94-6.84c3.31-5,9.72-6.63,15.84-6.63,9.22,0,17.14,4.25,17.14,13.47a14.4,14.4,0,0,1-.58,4c-.79,2.67-2.59,5.83-7.7,7.78a8,8,0,0,1-1.22.36A15.92,15.92,0,0,0,506.82,338Zm-19,11.09c0,5.55,4.68,8.28,9.22,8.28s9.07-3.09,9.07-8.06c0-6.05-5-8.5-9.43-8.5C494.73,340.8,487.81,341.59,487.81,349.08Zm1.23-23c0,4.54,3.89,7.49,8,7.49a7.6,7.6,0,0,0,7.85-7.42,7.43,7.43,0,0,0-7.78-7.34C492.49,318.84,489,321.86,489,326.11Z" transform="translate(-11.59 -0.87)"/><path class="cls-4" d="M538.21,312.79v43.42h4.68v7.42H524.17v-7.42h4.4V321.65l-6.41,2.59V316.1l9.36-3.31Z" transform="translate(-11.59 -0.87)"/><path class="cls-4" d="M461.61,7a6,6,0,0,1,.66-2.73c1.08-2.13,3.39-3.36,6.36-3.36,4.38,0,6.69,2.61,6.69,5.67,0,2.67-1.77,4.62-2.94,5.88-1.83,2-4.32,4.59-6.69,7h6.6v-3h3.21V22.5H461.07V19c2.82-2.79,3.51-3.45,6.84-6.93,1.74-1.77,3.42-3.48,3.42-5.55C471.33,4.83,470,4,468.48,4a2.8,2.8,0,0,0-3,2.94Z" transform="translate(-11.59 -0.87)"/><path class="cls-4" d="M491,1.56c1.17.54,4.59,2.64,4.59,10.41,0,3.57-.93,6.9-2.58,8.7a7.25,7.25,0,0,1-5.58,2.22c-6,0-7.92-5.46-7.92-11a18.8,18.8,0,0,1,1-6.27,7,7,0,0,1,7-4.77A8.39,8.39,0,0,1,491,1.56Zm-6.33,3.93c-1,1.71-1.14,5.31-1.14,6.39,0,2.34.42,5.07,1.32,6.48a3.06,3.06,0,0,0,2.76,1.47c1.74,0,3.42-.78,3.87-5.88.06-.72.09-1.47.09-2.19a15.67,15.67,0,0,0-.87-5.52A3.26,3.26,0,0,0,487.56,4,3,3,0,0,0,484.68,5.49Z" transform="translate(-11.59 -0.87)"/><path class="cls-4" d="M506,1.32V19.41h1.94V22.5H500.1V19.41h1.83V5l-2.67,1.08V2.7l3.9-1.38Z" transform="translate(-11.59 -0.87)"/><path class="cls-4" d="M510.57,1.32h14V4.17l-4.88,15.24h2.22V22.5h-8.64V19.41h2.22l5-15h-6.68V7h-3.21Z" transform="translate(-11.59 -0.87)"/><path class="cls-3" d="M447.28,59.48c-1.19,0-13.3,0-14.5,0-3.61,0-5.51,1.9-5.53,5.51,0,5-.05,18.6,0,20.36a2.38,2.38,0,0,0,2.45,2.39,2.41,2.41,0,0,0,2.47-2.36c0-.44,0-10.38,0-14.91,0-1.06,1.22-.83,1.22,0,0,.56,0,27.8,0,41.22,0,2.37,1.1,3.74,3,3.79s3.1-1.31,3.11-3.82c0-3.51,0-19.61,0-22.49a.44.44,0,1,1,.87,0c0,2.88,0,19,0,22.49,0,2.51,1.13,3.85,3.12,3.82s3-1.42,3-3.79c0-13.42,0-40.66,0-41.22,0-.87,1.22-1.1,1.22,0,0,4.53,0,14.47,0,14.91a2.4,2.4,0,0,0,2.48,2.36,2.37,2.37,0,0,0,2.43-2.39c.08-1.76,0-15.35,0-20.36C452.79,61.38,450.9,59.49,447.28,59.48Z" transform="translate(-11.59 -0.87)"/><path class="cls-3" d="M445,51.09a4.94,4.94,0,1,0-5,4.82A4.84,4.84,0,0,0,445,51.09Z" transform="translate(-11.59 -0.87)"/><path class="cls-3" d="M411.65,59.48c-1.19,0-13.3,0-14.5,0-3.61,0-5.51,1.9-5.52,5.51,0,5-.06,18.6,0,20.36a2.46,2.46,0,0,0,4.92,0c0-.44,0-10.38,0-14.91,0-1.06,1.22-.83,1.22,0,0,.56,0,27.8,0,41.22,0,2.37,1.1,3.74,3,3.79s3.1-1.31,3.12-3.82c0-3.51,0-19.61,0-22.49a.44.44,0,1,1,.87,0c0,2.88,0,19,0,22.49,0,2.51,1.13,3.85,3.12,3.82s3-1.42,3-3.79c0-13.42,0-40.66,0-41.22,0-.87,1.22-1.1,1.22,0,.05,4.53,0,14.47.05,14.91a2.45,2.45,0,0,0,4.9,0c.08-1.76,0-15.35,0-20.36C417.17,61.38,415.28,59.49,411.65,59.48Z" transform="translate(-11.59 -0.87)"/><path class="cls-3" d="M409.34,51.09a4.94,4.94,0,1,0-5,4.82A4.84,4.84,0,0,0,409.34,51.09Z" transform="translate(-11.59 -0.87)"/><path class="cls-3" d="M589.79,59.48c-1.19,0-13.3,0-14.5,0-3.61,0-5.51,1.9-5.52,5.51,0,5-.06,18.6,0,20.36a2.46,2.46,0,0,0,4.92,0c0-.44,0-10.38,0-14.91,0-1.06,1.22-.83,1.22,0,0,.56,0,27.8,0,41.22,0,2.37,1.1,3.74,3,3.79s3.1-1.31,3.12-3.82c0-3.51,0-19.61,0-22.49a.44.44,0,1,1,.87,0c0,2.88,0,19,0,22.49,0,2.51,1.13,3.85,3.12,3.82s3-1.42,3-3.79c0-13.42,0-40.66,0-41.22,0-.87,1.22-1.1,1.22,0,0,4.53,0,14.47,0,14.91a2.46,2.46,0,0,0,4.91,0c.07-1.76,0-15.35,0-20.36C595.31,61.38,593.42,59.49,589.79,59.48Z" transform="translate(-11.59 -0.87)"/><path class="cls-3" d="M587.48,51.09a4.94,4.94,0,1,0-5,4.82A4.84,4.84,0,0,0,587.48,51.09Z" transform="translate(-11.59 -0.87)"/><path class="cls-3" d="M554.17,59.48c-1.2,0-13.31,0-14.51,0-3.61,0-5.51,1.9-5.52,5.51,0,5,0,18.6,0,20.36a2.46,2.46,0,0,0,4.92,0c0-.44,0-10.38,0-14.91,0-1.06,1.22-.83,1.22,0,0,.56,0,27.8,0,41.22,0,2.37,1.1,3.74,3,3.79s3.11-1.31,3.12-3.82c0-3.51,0-19.61,0-22.49a.44.44,0,1,1,.87,0c0,2.88,0,19,0,22.49,0,2.51,1.13,3.85,3.12,3.82s3-1.42,3-3.79c0-13.42,0-40.66,0-41.22,0-.87,1.22-1.1,1.22,0,0,4.53,0,14.47,0,14.91a2.46,2.46,0,0,0,4.91,0c.07-1.76,0-15.35,0-20.36C559.68,61.38,557.79,59.49,554.17,59.48Z" transform="translate(-11.59 -0.87)"/><path class="cls-3" d="M551.85,51.09a4.94,4.94,0,1,0-5,4.82A4.84,4.84,0,0,0,551.85,51.09Z" transform="translate(-11.59 -0.87)"/><path class="cls-3" d="M518.54,59.48c-1.2,0-13.31,0-14.5,0-3.62,0-5.52,1.9-5.53,5.51,0,5-.05,18.6,0,20.36a2.46,2.46,0,0,0,4.92,0c0-.44,0-10.38,0-14.91,0-1.06,1.21-.83,1.21,0,0,.56,0,27.8,0,41.22,0,2.37,1.1,3.74,3,3.79s3.11-1.31,3.12-3.82c0-3.51,0-19.61,0-22.49a.44.44,0,1,1,.87,0c0,2.88,0,19,0,22.49,0,2.51,1.14,3.85,3.12,3.82s3-1.42,3-3.79c0-13.42,0-40.66,0-41.22,0-.87,1.22-1.1,1.22,0,0,4.53,0,14.47,0,14.91a2.46,2.46,0,0,0,4.91,0c.08-1.76,0-15.35,0-20.36C524.05,61.38,522.16,59.49,518.54,59.48Z" transform="translate(-11.59 -0.87)"/><path class="cls-3" d="M516.22,51.09a4.94,4.94,0,1,0-5,4.82A4.84,4.84,0,0,0,516.22,51.09Z" transform="translate(-11.59 -0.87)"/><path class="cls-3" d="M482.91,59.48c-1.2,0-13.31,0-14.5,0-3.62,0-5.52,1.9-5.53,5.51,0,5-.05,18.6,0,20.36a2.46,2.46,0,0,0,4.91,0c0-.44,0-10.38,0-14.91,0-1.06,1.22-.83,1.22,0,0,.56,0,27.8,0,41.22,0,2.37,1.1,3.74,3,3.79s3.11-1.31,3.12-3.82c0-3.51,0-19.61,0-22.49a.44.44,0,1,1,.87,0c0,2.88,0,19,0,22.49,0,2.51,1.14,3.85,3.12,3.82s3-1.42,3-3.79c0-13.42,0-40.66,0-41.22,0-.87,1.22-1.1,1.22,0,0,4.53,0,14.47,0,14.91a2.46,2.46,0,0,0,4.91,0c.08-1.76,0-15.35,0-20.36C488.42,61.38,486.53,59.49,482.91,59.48Z" transform="translate(-11.59 -0.87)"/><path class="cls-3" d="M480.59,51.09a4.9,4.9,0,0,0-4.9-5,4.89,4.89,0,1,0-.12,9.78A4.83,4.83,0,0,0,480.59,51.09Z" transform="translate(-11.59 -0.87)"/><path class="cls-3" d="M425.52,136.9c-1.2,0-13.31,0-14.51,0-3.61,0-5.51,1.9-5.52,5.51,0,5-.05,18.6,0,20.36a2.46,2.46,0,0,0,4.92,0c0-.44,0-10.38,0-14.91,0-1.06,1.22-.83,1.22,0,0,.56,0,27.8,0,41.22,0,2.37,1.1,3.74,3,3.79s3.11-1.31,3.12-3.82c0-3.51,0-19.61,0-22.49a.44.44,0,1,1,.87,0c0,2.88,0,19,0,22.49,0,2.51,1.13,3.85,3.12,3.82s3-1.42,3-3.79c0-13.42,0-40.66,0-41.22,0-.87,1.22-1.1,1.22,0,0,4.53,0,14.47,0,14.91a2.46,2.46,0,0,0,4.91,0c.08-1.76,0-15.35,0-20.36C431,138.8,429.14,136.91,425.52,136.9Z" transform="translate(-11.59 -0.87)"/><path class="cls-3" d="M423.2,128.51a4.94,4.94,0,1,0-5,4.82A4.84,4.84,0,0,0,423.2,128.51Z" transform="translate(-11.59 -0.87)"/><path class="cls-3" d="M571.67,136.9c-1.19,0-13.31,0-14.5,0-3.61,0-5.51,1.9-5.53,5.51,0,5,0,18.6,0,20.36a2.38,2.38,0,0,0,2.44,2.39,2.41,2.41,0,0,0,2.48-2.36c0-.44,0-10.38,0-14.91,0-1.06,1.22-.83,1.22,0,0,.56,0,27.8,0,41.22,0,2.37,1.1,3.74,3,3.79s3.1-1.31,3.11-3.82c0-3.51,0-19.61,0-22.49a.43.43,0,1,1,.86,0c0,2.88,0,19,0,22.49,0,2.51,1.13,3.85,3.12,3.82s3-1.42,3-3.79c0-13.42,0-40.66,0-41.22,0-.87,1.22-1.1,1.22,0,0,4.53,0,14.47,0,14.91a2.46,2.46,0,0,0,4.91,0c.08-1.76,0-15.35,0-20.36C577.18,138.8,575.29,136.91,571.67,136.9Z" transform="translate(-11.59 -0.87)"/><path class="cls-3" d="M569.36,128.51a4.94,4.94,0,1,0-5,4.82A4.84,4.84,0,0,0,569.36,128.51Z" transform="translate(-11.59 -0.87)"/><path class="cls-3" d="M462.05,136.9c-1.19,0-13.3,0-14.5,0-3.61,0-5.51,1.9-5.52,5.51,0,5-.06,18.6,0,20.36a2.46,2.46,0,0,0,4.92,0c0-.44,0-10.38,0-14.91,0-1.06,1.22-.83,1.22,0,0,.56,0,27.8,0,41.22,0,2.37,1.1,3.74,3,3.79s3.1-1.31,3.12-3.82c0-3.51,0-19.61,0-22.49a.44.44,0,1,1,.87,0c0,2.88,0,19,0,22.49,0,2.51,1.13,3.85,3.12,3.82s3-1.42,3-3.79c0-13.42,0-40.66,0-41.22,0-.87,1.22-1.1,1.22,0,0,4.53,0,14.47,0,14.91a2.46,2.46,0,0,0,4.91,0c.07-1.76,0-15.35,0-20.36C467.57,138.8,465.68,136.91,462.05,136.9Z" transform="translate(-11.59 -0.87)"/><path class="cls-3" d="M459.74,128.51a4.94,4.94,0,1,0-5,4.82A4.84,4.84,0,0,0,459.74,128.51Z" transform="translate(-11.59 -0.87)"/><path class="cls-3" d="M498.59,136.9c-1.19,0-13.3,0-14.5,0-3.61,0-5.51,1.9-5.52,5.51,0,5-.06,18.6,0,20.36a2.46,2.46,0,0,0,4.92,0c0-.44,0-10.38,0-14.91,0-1.06,1.22-.83,1.22,0,0,.56,0,27.8,0,41.22,0,2.37,1.1,3.74,3,3.79s3.1-1.31,3.12-3.82c0-3.51,0-19.61,0-22.49a.44.44,0,1,1,.87,0c0,2.88,0,19,0,22.49,0,2.51,1.13,3.85,3.12,3.82s3-1.42,3-3.79c0-13.42,0-40.66,0-41.22,0-.87,1.22-1.1,1.22,0,.05,4.53,0,14.47.05,14.91a2.45,2.45,0,0,0,4.9,0c.08-1.76,0-15.35,0-20.36C504.11,138.8,502.22,136.91,498.59,136.9Z" transform="translate(-11.59 -0.87)"/><path class="cls-3" d="M496.28,128.51a4.94,4.94,0,1,0-5,4.82A4.84,4.84,0,0,0,496.28,128.51Z" transform="translate(-11.59 -0.87)"/><path class="cls-3" d="M535.13,136.9c-1.19,0-13.3,0-14.5,0-3.61,0-5.51,1.9-5.52,5.51,0,5-.06,18.6,0,20.36a2.46,2.46,0,0,0,4.92,0c0-.44,0-10.38,0-14.91,0-1.06,1.22-.83,1.22,0,0,.56,0,27.8,0,41.22,0,2.37,1.1,3.74,3,3.79s3.1-1.31,3.11-3.82c0-3.51,0-19.61,0-22.49a.44.44,0,1,1,.87,0c0,2.88,0,19,0,22.49,0,2.51,1.13,3.85,3.12,3.82s3-1.42,3-3.79c0-13.42,0-40.66,0-41.22,0-.87,1.22-1.1,1.22,0,.05,4.53,0,14.47.05,14.91a2.45,2.45,0,0,0,4.9,0c.08-1.76,0-15.35,0-20.36C540.64,138.8,538.76,136.91,535.13,136.9Z" transform="translate(-11.59 -0.87)"/><path class="cls-3" d="M532.82,128.51a4.94,4.94,0,1,0-5,4.82A4.84,4.84,0,0,0,532.82,128.51Z" transform="translate(-11.59 -0.87)"/><path class="cls-3" d="M448.27,215.67h-14.5c-3.62,0-5.52,1.9-5.53,5.51,0,5-.05,18.6,0,20.37a2.37,2.37,0,0,0,2.44,2.38,2.4,2.4,0,0,0,2.47-2.36c0-.44,0-10.38,0-14.91,0-1,1.22-.82,1.22,0,0,.56,0,27.8,0,41.22,0,2.37,1.1,3.74,3,3.79s3.11-1.31,3.12-3.81c0-3.52,0-19.62,0-22.5a.44.44,0,1,1,.87,0c0,2.88,0,19,0,22.5,0,2.5,1.14,3.84,3.12,3.81s3-1.42,3-3.79c0-13.42,0-40.66,0-41.22,0-.86,1.22-1.09,1.22,0,0,4.53,0,14.47,0,14.91a2.46,2.46,0,0,0,4.91,0c.08-1.77,0-15.35,0-20.37C453.78,217.57,451.89,215.68,448.27,215.67Z" transform="translate(-11.59 -0.87)"/><path class="cls-3" d="M446,207.28a4.9,4.9,0,0,0-4.9-5,4.89,4.89,0,1,0-.12,9.78A4.83,4.83,0,0,0,446,207.28Z" transform="translate(-11.59 -0.87)"/><path class="cls-3" d="M558.48,215.67H544c-3.62,0-5.52,1.9-5.53,5.51,0,5-.05,18.6,0,20.37a2.37,2.37,0,0,0,2.44,2.38,2.4,2.4,0,0,0,2.47-2.36c0-.44,0-10.38,0-14.91,0-1,1.22-.82,1.22,0,0,.56,0,27.8,0,41.22,0,2.37,1.1,3.74,3,3.79s3.11-1.31,3.12-3.81c0-3.52,0-19.62,0-22.5a.44.44,0,1,1,.87,0c0,2.88,0,19,0,22.5,0,2.5,1.14,3.84,3.12,3.81s3-1.42,3-3.79c0-13.42,0-40.66,0-41.22,0-.86,1.22-1.09,1.22,0,0,4.53,0,14.47,0,14.91a2.46,2.46,0,0,0,4.91,0c.08-1.77,0-15.35,0-20.37C564,217.57,562.1,215.68,558.48,215.67Z" transform="translate(-11.59 -0.87)"/><path class="cls-3" d="M556.16,207.28a4.94,4.94,0,1,0-5,4.82A4.83,4.83,0,0,0,556.16,207.28Z" transform="translate(-11.59 -0.87)"/><path class="cls-3" d="M485,215.67H470.5c-3.61,0-5.51,1.9-5.52,5.51,0,5-.05,18.6,0,20.37a2.46,2.46,0,0,0,4.92,0c0-.44,0-10.38,0-14.91,0-1,1.22-.82,1.22,0,0,.56,0,27.8,0,41.22,0,2.37,1.1,3.74,3,3.79s3.11-1.31,3.12-3.81c0-3.52,0-19.62,0-22.5a.44.44,0,1,1,.87,0c0,2.88,0,19,0,22.5,0,2.5,1.13,3.84,3.12,3.81s3-1.42,3-3.79c0-13.42,0-40.66,0-41.22,0-.86,1.22-1.09,1.22,0,0,4.53,0,14.47,0,14.91a2.46,2.46,0,0,0,4.91,0c.08-1.77,0-15.35,0-20.37C490.52,217.57,488.63,215.68,485,215.67Z" transform="translate(-11.59 -0.87)"/><path class="cls-3" d="M482.69,207.28a4.94,4.94,0,1,0-5,4.82A4.83,4.83,0,0,0,482.69,207.28Z" transform="translate(-11.59 -0.87)"/><path class="cls-3" d="M521.74,215.67h-14.5c-3.61,0-5.51,1.9-5.52,5.51,0,5-.06,18.6,0,20.37a2.46,2.46,0,0,0,4.92,0c0-.44,0-10.38,0-14.91,0-1,1.22-.82,1.22,0,0,.56,0,27.8,0,41.22,0,2.37,1.1,3.74,3,3.79s3.1-1.31,3.11-3.81c0-3.52,0-19.62,0-22.5a.44.44,0,1,1,.87,0c0,2.88,0,19,0,22.5,0,2.5,1.13,3.84,3.12,3.81s3-1.42,3-3.79c0-13.42,0-40.66,0-41.22,0-.86,1.22-1.09,1.22,0,.05,4.53,0,14.47.05,14.91a2.45,2.45,0,0,0,4.9,0c.08-1.77,0-15.35,0-20.37C527.25,217.57,525.37,215.68,521.74,215.67Z" transform="translate(-11.59 -0.87)"/><path class="cls-3" d="M519.43,207.28a4.94,4.94,0,1,0-5,4.82A4.83,4.83,0,0,0,519.43,207.28Z" transform="translate(-11.59 -0.87)"/><path class="cls-4" d="M733.4,312.79h13.9V342h8.57v6.77H747.3v7.42h4.61v7.42H732.83v-7.42h5v-7.42h-21.1V342Zm4.83,6.7L726,342h12.24Z" transform="translate(-11.59 -0.87)"/><path class="cls-4" d="M761,326.33a14.48,14.48,0,0,1,1.58-6.56c2.59-5.11,8.14-8.06,15.27-8.06,10.51,0,16,6.26,16,13.61,0,6.41-4.25,11.09-7,14.11-4.4,4.9-10.37,11-16.06,16.78h15.84v-7.13h7.71v14.55H759.68v-8.36c6.77-6.69,8.42-8.28,16.42-16.63,4.17-4.25,8.21-8.35,8.21-13.32,0-4.11-3.1-6.05-6.84-6.05-6.56,0-7.06,5.26-7.21,7.06Z" transform="translate(-11.59 -0.87)"/><path class="cls-4" d="M830.31,338c6.7,2.23,8.86,6.34,8.86,11.59,0,8.57-7.27,15.13-18.58,15.13s-18.93-6.12-18.93-14.84c0-3.53,1.8-11.09,11.52-12.38a15.62,15.62,0,0,1-6.77-3.6,12.61,12.61,0,0,1-3.24-8.57,13.19,13.19,0,0,1,1.94-6.84c3.31-5,9.72-6.63,15.84-6.63,9.22,0,17.14,4.25,17.14,13.47a14.4,14.4,0,0,1-.58,4c-.79,2.67-2.59,5.83-7.7,7.78a8,8,0,0,1-1.22.36A15.92,15.92,0,0,0,830.31,338Zm-19,11.09c0,5.55,4.68,8.28,9.22,8.28s9.07-3.09,9.07-8.06c0-6.05-5-8.5-9.43-8.5C818.22,340.8,811.3,341.59,811.3,349.08Zm1.23-23c0,4.54,3.89,7.49,8,7.49a7.6,7.6,0,0,0,7.85-7.42,7.43,7.43,0,0,0-7.78-7.34C816,318.84,812.53,321.86,812.53,326.11Z" transform="translate(-11.59 -0.87)"/><path class="cls-4" d="M745.69,7a6,6,0,0,1,.66-2.73c1.08-2.13,3.39-3.36,6.36-3.36,4.38,0,6.69,2.61,6.69,5.67,0,2.67-1.77,4.62-2.94,5.88-1.83,2-4.32,4.59-6.69,7h6.6v-3h3.21V22.5H745.15V19c2.82-2.79,3.51-3.45,6.84-6.93,1.74-1.77,3.42-3.48,3.42-5.55,0-1.71-1.29-2.52-2.85-2.52a2.8,2.8,0,0,0-3,2.94Z" transform="translate(-11.59 -0.87)"/><path class="cls-4" d="M775.09,1.56c1.17.54,4.59,2.64,4.59,10.41,0,3.57-.93,6.9-2.58,8.7a7.25,7.25,0,0,1-5.58,2.22c-6,0-7.92-5.46-7.92-11a18.8,18.8,0,0,1,1-6.27,7,7,0,0,1,7-4.77A8.39,8.39,0,0,1,775.09,1.56Zm-6.33,3.93c-1,1.71-1.14,5.31-1.14,6.39,0,2.34.42,5.07,1.32,6.48a3.06,3.06,0,0,0,2.76,1.47c1.74,0,3.42-.78,3.87-5.88.06-.72.09-1.47.09-2.19a15.67,15.67,0,0,0-.87-5.52A3.26,3.26,0,0,0,771.64,4,3,3,0,0,0,768.76,5.49Z" transform="translate(-11.59 -0.87)"/><path class="cls-4" d="M790,1.32V19.41h2V22.5h-7.8V19.41H786V5l-2.67,1.08V2.7l3.9-1.38Z" transform="translate(-11.59 -0.87)"/><path class="cls-4" d="M807.67,11.82c2.79.93,3.69,2.64,3.69,4.83,0,3.57-3,6.3-7.74,6.3s-7.89-2.55-7.89-6.18a5.11,5.11,0,0,1,4.8-5.16,6.49,6.49,0,0,1-2.82-1.5,5.26,5.26,0,0,1-1.35-3.57,5.48,5.48,0,0,1,.81-2.85c1.38-2.1,4.05-2.76,6.6-2.76,3.84,0,7.14,1.77,7.14,5.61a6.5,6.5,0,0,1-.24,1.68,4.85,4.85,0,0,1-3.21,3.24,3.63,3.63,0,0,1-.51.15A6.52,6.52,0,0,0,807.67,11.82Zm-7.92,4.62c0,2.31,2,3.45,3.84,3.45a3.55,3.55,0,0,0,3.78-3.36c0-2.52-2.08-3.54-3.93-3.54C802.62,13,799.75,13.32,799.75,16.44Zm.51-9.57A3.2,3.2,0,0,0,803.59,10a3.17,3.17,0,0,0,3.27-3.09,3.31,3.31,0,0,0-6.6,0Z" transform="translate(-11.59 -0.87)"/><path class="cls-3" d="M893.17,59.48c-1.19,0-13.31,0-14.5,0-3.61,0-5.51,1.9-5.53,5.51,0,5,0,18.6,0,20.36a2.38,2.38,0,0,0,2.44,2.39,2.41,2.41,0,0,0,2.48-2.36c0-.44,0-10.38,0-14.91,0-1.06,1.22-.83,1.22,0,0,.56,0,27.8,0,41.22,0,2.37,1.1,3.74,3,3.79s3.1-1.31,3.11-3.82c0-3.51,0-19.61,0-22.49a.43.43,0,1,1,.86,0c0,2.88,0,19,0,22.49,0,2.51,1.13,3.85,3.12,3.82s3-1.42,3-3.79c0-13.42,0-40.66,0-41.22,0-.87,1.22-1.1,1.22,0,0,4.53,0,14.47,0,14.91a2.46,2.46,0,0,0,4.91,0c.08-1.76,0-15.35,0-20.36C898.68,61.38,896.79,59.49,893.17,59.48Z" transform="translate(-11.59 -0.87)"/><path class="cls-3" d="M890.86,51.09a4.94,4.94,0,1,0-5,4.82A4.84,4.84,0,0,0,890.86,51.09Z" transform="translate(-11.59 -0.87)"/><path class="cls-3" d="M677.7,59.48c-1.2,0-13.31,0-14.51,0-3.61,0-5.51,1.9-5.52,5.51,0,5,0,18.6,0,20.36a2.46,2.46,0,0,0,4.92,0c0-.44,0-10.38,0-14.91,0-1.06,1.21-.83,1.21,0,0,.56,0,27.8,0,41.22,0,2.37,1.09,3.74,3,3.79s3.11-1.31,3.12-3.82c0-3.51,0-19.61,0-22.49a.44.44,0,1,1,.87,0c0,2.88,0,19,0,22.49,0,2.51,1.14,3.85,3.12,3.82s3-1.42,3-3.79c0-13.42,0-40.66,0-41.22,0-.87,1.22-1.1,1.22,0,0,4.53,0,14.47,0,14.91a2.46,2.46,0,0,0,4.91,0c.08-1.76,0-15.35,0-20.36C683.21,61.38,681.32,59.49,677.7,59.48Z" transform="translate(-11.59 -0.87)"/><path class="cls-3" d="M675.38,51.09a4.94,4.94,0,1,0-5,4.82A4.84,4.84,0,0,0,675.38,51.09Z" transform="translate(-11.59 -0.87)"/><path class="cls-3" d="M713.61,59.48c-1.2,0-13.31,0-14.5,0-3.62,0-5.52,1.9-5.53,5.51,0,5-.05,18.6,0,20.36a2.46,2.46,0,0,0,4.91,0c0-.44,0-10.38,0-14.91,0-1.06,1.22-.83,1.22,0,0,.56,0,27.8,0,41.22,0,2.37,1.1,3.74,3,3.79s3.11-1.31,3.12-3.82c0-3.51,0-19.61,0-22.49a.44.44,0,1,1,.87,0c0,2.88,0,19,0,22.49,0,2.51,1.14,3.85,3.12,3.82s3-1.42,3-3.79c0-13.42,0-40.66,0-41.22,0-.87,1.22-1.1,1.22,0,0,4.53,0,14.47,0,14.91a2.46,2.46,0,0,0,4.91,0c.08-1.76,0-15.35,0-20.36C719.12,61.38,717.23,59.49,713.61,59.48Z" transform="translate(-11.59 -0.87)"/><path class="cls-3" d="M711.29,51.09a4.9,4.9,0,0,0-4.9-5,4.89,4.89,0,1,0-.12,9.78A4.83,4.83,0,0,0,711.29,51.09Z" transform="translate(-11.59 -0.87)"/><path class="cls-3" d="M749.52,59.48c-1.19,0-13.3,0-14.5,0-3.61,0-5.51,1.9-5.53,5.51,0,5,0,18.6,0,20.36A2.38,2.38,0,0,0,732,87.74a2.41,2.41,0,0,0,2.47-2.36c0-.44,0-10.38,0-14.91,0-1.06,1.22-.83,1.22,0,0,.56,0,27.8,0,41.22,0,2.37,1.1,3.74,3,3.79s3.1-1.31,3.11-3.82c0-3.51,0-19.61,0-22.49a.44.44,0,1,1,.87,0c0,2.88,0,19,0,22.49,0,2.51,1.13,3.85,3.12,3.82s3-1.42,3-3.79c0-13.42,0-40.66,0-41.22,0-.87,1.22-1.1,1.22,0,0,4.53,0,14.47,0,14.91a2.4,2.4,0,0,0,2.48,2.36A2.37,2.37,0,0,0,755,85.35c.08-1.76,0-15.35,0-20.36C755,61.38,753.14,59.49,749.52,59.48Z" transform="translate(-11.59 -0.87)"/><path class="cls-3" d="M747.21,51.09a4.94,4.94,0,1,0-5,4.82A4.84,4.84,0,0,0,747.21,51.09Z" transform="translate(-11.59 -0.87)"/><path class="cls-3" d="M857.26,59.48c-1.2,0-13.31,0-14.5,0-3.62,0-5.52,1.9-5.53,5.51,0,5-.05,18.6,0,20.36a2.46,2.46,0,0,0,4.92,0c0-.44,0-10.38,0-14.91,0-1.06,1.21-.83,1.21,0,0,.56,0,27.8,0,41.22,0,2.37,1.1,3.74,3,3.79s3.11-1.31,3.12-3.82c0-3.51,0-19.61,0-22.49a.44.44,0,1,1,.87,0c0,2.88,0,19,0,22.49,0,2.51,1.14,3.85,3.12,3.82s3-1.42,3-3.79c0-13.42,0-40.66,0-41.22,0-.87,1.22-1.1,1.22,0,0,4.53,0,14.47,0,14.91a2.46,2.46,0,0,0,4.91,0c.08-1.76,0-15.35,0-20.36C862.77,61.38,860.88,59.49,857.26,59.48Z" transform="translate(-11.59 -0.87)"/><path class="cls-3" d="M854.94,51.09a4.94,4.94,0,1,0-5,4.82A4.84,4.84,0,0,0,854.94,51.09Z" transform="translate(-11.59 -0.87)"/><path class="cls-3" d="M821.35,59.48c-1.2,0-13.31,0-14.51,0-3.61,0-5.51,1.9-5.52,5.51,0,5-.05,18.6,0,20.36a2.46,2.46,0,0,0,4.92,0c0-.44,0-10.38,0-14.91,0-1.06,1.22-.83,1.22,0,0,.56,0,27.8,0,41.22,0,2.37,1.1,3.74,3,3.79s3.11-1.31,3.12-3.82c0-3.51,0-19.61,0-22.49a.44.44,0,1,1,.87,0c0,2.88,0,19,0,22.49,0,2.51,1.13,3.85,3.12,3.82s3-1.42,3-3.79c0-13.42,0-40.66,0-41.22,0-.87,1.22-1.1,1.22,0,0,4.53,0,14.47,0,14.91a2.46,2.46,0,0,0,4.91,0c.08-1.76,0-15.35,0-20.36C826.86,61.38,825,59.49,821.35,59.48Z" transform="translate(-11.59 -0.87)"/><path class="cls-3" d="M819,51.09a4.94,4.94,0,1,0-5,4.82A4.84,4.84,0,0,0,819,51.09Z" transform="translate(-11.59 -0.87)"/><path class="cls-3" d="M785.43,59.48c-1.19,0-13.3,0-14.5,0-3.61,0-5.51,1.9-5.52,5.51,0,5-.06,18.6,0,20.36a2.46,2.46,0,0,0,4.92,0c0-.44,0-10.38,0-14.91,0-1.06,1.22-.83,1.22,0,0,.56,0,27.8,0,41.22,0,2.37,1.1,3.74,3,3.79s3.1-1.31,3.12-3.82c0-3.51,0-19.61,0-22.49a.44.44,0,1,1,.87,0c0,2.88,0,19,0,22.49,0,2.51,1.13,3.85,3.12,3.82s3-1.42,3-3.79c0-13.42,0-40.66,0-41.22,0-.87,1.21-1.1,1.21,0,0,4.53,0,14.47,0,14.91a2.45,2.45,0,0,0,4.9,0C791,83.59,791,70,791,65,791,61.38,789.06,59.49,785.43,59.48Z" transform="translate(-11.59 -0.87)"/><path class="cls-3" d="M783.12,51.09a4.94,4.94,0,1,0-5,4.82A4.84,4.84,0,0,0,783.12,51.09Z" transform="translate(-11.59 -0.87)"/><path class="cls-3" d="M691.76,136.9c-1.19,0-13.3,0-14.5,0-3.61,0-5.51,1.9-5.52,5.51,0,5-.06,18.6,0,20.36a2.46,2.46,0,0,0,4.92,0c0-.44,0-10.38,0-14.91,0-1.06,1.22-.83,1.22,0,0,.56,0,27.8,0,41.22,0,2.37,1.1,3.74,3,3.79s3.1-1.31,3.12-3.82c0-3.51,0-19.61,0-22.49a.44.44,0,1,1,.87,0c0,2.88,0,19,0,22.49,0,2.51,1.13,3.85,3.12,3.82s3-1.42,3-3.79c0-13.42,0-40.66,0-41.22,0-.87,1.22-1.1,1.22,0,.05,4.53,0,14.47.05,14.91a2.45,2.45,0,0,0,4.9,0c.08-1.76,0-15.35,0-20.36C697.28,138.8,695.39,136.91,691.76,136.9Z" transform="translate(-11.59 -0.87)"/><path class="cls-3" d="M689.45,128.51a4.94,4.94,0,1,0-5,4.82A4.84,4.84,0,0,0,689.45,128.51Z" transform="translate(-11.59 -0.87)"/><path class="cls-3" d="M728.46,136.9c-1.19,0-13.31,0-14.5,0-3.61,0-5.51,1.9-5.53,5.51,0,5,0,18.6,0,20.36a2.38,2.38,0,0,0,2.44,2.39,2.41,2.41,0,0,0,2.48-2.36c0-.44,0-10.38,0-14.91,0-1.06,1.22-.83,1.22,0,0,.56,0,27.8,0,41.22,0,2.37,1.1,3.74,3,3.79s3.1-1.31,3.11-3.82c0-3.51,0-19.61,0-22.49a.43.43,0,1,1,.86,0c0,2.88,0,19,0,22.49,0,2.51,1.13,3.85,3.12,3.82s3-1.42,3-3.79c0-13.42,0-40.66,0-41.22,0-.87,1.22-1.1,1.22,0,0,4.53,0,14.47,0,14.91a2.46,2.46,0,0,0,4.91,0c.08-1.76,0-15.35,0-20.36C734,138.8,732.08,136.91,728.46,136.9Z" transform="translate(-11.59 -0.87)"/><path class="cls-3" d="M726.15,128.51a4.94,4.94,0,1,0-5,4.82A4.84,4.84,0,0,0,726.15,128.51Z" transform="translate(-11.59 -0.87)"/><path class="cls-3" d="M875.25,136.9c-1.19,0-13.31,0-14.5,0-3.61,0-5.51,1.9-5.53,5.51,0,5-.05,18.6,0,20.36a2.38,2.38,0,0,0,2.44,2.39,2.41,2.41,0,0,0,2.48-2.36c0-.44,0-10.38,0-14.91,0-1.06,1.22-.83,1.22,0,0,.56,0,27.8,0,41.22,0,2.37,1.1,3.74,3,3.79s3.1-1.31,3.11-3.82c0-3.51,0-19.61,0-22.49a.43.43,0,1,1,.86,0c0,2.88,0,19,0,22.49,0,2.51,1.13,3.85,3.12,3.82s3-1.42,3-3.79c0-13.42,0-40.66,0-41.22,0-.87,1.22-1.1,1.22,0,0,4.53,0,14.47,0,14.91a2.46,2.46,0,0,0,4.91,0c.08-1.76,0-15.35,0-20.36C880.76,138.8,878.87,136.91,875.25,136.9Z" transform="translate(-11.59 -0.87)"/><path class="cls-3" d="M872.94,128.51a4.94,4.94,0,1,0-5,4.82A4.84,4.84,0,0,0,872.94,128.51Z" transform="translate(-11.59 -0.87)"/><path class="cls-3" d="M765.16,136.9c-1.2,0-13.31,0-14.5,0-3.62,0-5.52,1.9-5.53,5.51,0,5,0,18.6,0,20.36a2.46,2.46,0,0,0,4.92,0c0-.44,0-10.38,0-14.91,0-1.06,1.21-.83,1.21,0,0,.56,0,27.8,0,41.22,0,2.37,1.1,3.74,3,3.79s3.11-1.31,3.12-3.82c0-3.51,0-19.61,0-22.49a.44.44,0,1,1,.87,0c0,2.88,0,19,0,22.49,0,2.51,1.14,3.85,3.12,3.82s3-1.42,3-3.79c0-13.42,0-40.66,0-41.22,0-.87,1.22-1.1,1.22,0,0,4.53,0,14.47,0,14.91a2.46,2.46,0,0,0,4.91,0c.08-1.76,0-15.35,0-20.36C770.67,138.8,768.78,136.91,765.16,136.9Z" transform="translate(-11.59 -0.87)"/><path class="cls-3" d="M762.84,128.51a4.94,4.94,0,1,0-5,4.82A4.84,4.84,0,0,0,762.84,128.51Z" transform="translate(-11.59 -0.87)"/><path class="cls-3" d="M801.86,136.9c-1.2,0-13.31,0-14.51,0-3.61,0-5.51,1.9-5.52,5.51,0,5-.05,18.6,0,20.36a2.46,2.46,0,0,0,4.92,0c0-.44,0-10.38,0-14.91,0-1.06,1.22-.83,1.22,0,0,.56,0,27.8,0,41.22,0,2.37,1.1,3.74,3,3.79s3.11-1.31,3.12-3.82c0-3.51,0-19.61,0-22.49a.44.44,0,1,1,.87,0c0,2.88,0,19,0,22.49,0,2.51,1.13,3.85,3.12,3.82s3-1.42,3-3.79c0-13.42,0-40.66,0-41.22,0-.87,1.22-1.1,1.22,0,0,4.53,0,14.47,0,14.91a2.46,2.46,0,0,0,4.91,0c.07-1.76,0-15.35,0-20.36C807.37,138.8,805.48,136.91,801.86,136.9Z" transform="translate(-11.59 -0.87)"/><path class="cls-3" d="M799.54,128.51a4.94,4.94,0,1,0-5,4.82A4.84,4.84,0,0,0,799.54,128.51Z" transform="translate(-11.59 -0.87)"/><path class="cls-3" d="M838.55,136.9c-1.19,0-13.3,0-14.5,0-3.61,0-5.51,1.9-5.52,5.51,0,5-.06,18.6,0,20.36a2.46,2.46,0,0,0,4.92,0c0-.44,0-10.38,0-14.91,0-1.06,1.22-.83,1.22,0,0,.56,0,27.8,0,41.22,0,2.37,1.1,3.74,3,3.79s3.1-1.31,3.12-3.82c0-3.51,0-19.61,0-22.49a.44.44,0,1,1,.87,0c0,2.88,0,19,0,22.49,0,2.51,1.13,3.85,3.12,3.82s3-1.42,3-3.79c0-13.42,0-40.66,0-41.22,0-.87,1.22-1.1,1.22,0,0,4.53,0,14.47,0,14.91a2.45,2.45,0,0,0,4.9,0c.08-1.76,0-15.35,0-20.36C844.07,138.8,842.18,136.91,838.55,136.9Z" transform="translate(-11.59 -0.87)"/><path class="cls-3" d="M836.24,128.51a4.94,4.94,0,1,0-5,4.82A4.84,4.84,0,0,0,836.24,128.51Z" transform="translate(-11.59 -0.87)"/><path class="cls-3" d="M859.18,215.67h-14.5c-3.61,0-5.51,1.9-5.53,5.51,0,5,0,18.6,0,20.37a2.37,2.37,0,0,0,2.45,2.38,2.41,2.41,0,0,0,2.47-2.36c0-.44,0-10.38,0-14.91,0-1,1.22-.82,1.22,0,0,.56,0,27.8,0,41.22,0,2.37,1.1,3.74,3,3.79s3.1-1.31,3.11-3.81c0-3.52,0-19.62,0-22.5a.44.44,0,1,1,.87,0c0,2.88,0,19,0,22.5,0,2.5,1.13,3.84,3.12,3.81s3-1.42,3-3.79c0-13.42,0-40.66,0-41.22,0-.86,1.22-1.09,1.22,0,0,4.53,0,14.47,0,14.91a2.4,2.4,0,0,0,2.48,2.36,2.36,2.36,0,0,0,2.43-2.38c.08-1.77,0-15.35,0-20.37C864.69,217.57,862.8,215.68,859.18,215.67Z" transform="translate(-11.59 -0.87)"/><path class="cls-3" d="M856.87,207.28a4.94,4.94,0,1,0-5,4.82A4.84,4.84,0,0,0,856.87,207.28Z" transform="translate(-11.59 -0.87)"/><path class="cls-3" d="M749.57,215.67H735.06c-3.61,0-5.51,1.9-5.52,5.51,0,5,0,18.6,0,20.37a2.46,2.46,0,0,0,4.92,0c0-.44,0-10.38,0-14.91,0-1,1.22-.82,1.22,0,0,.56,0,27.8,0,41.22,0,2.37,1.1,3.74,3,3.79s3.11-1.31,3.12-3.81c0-3.52,0-19.62,0-22.5a.44.44,0,1,1,.87,0c0,2.88,0,19,0,22.5,0,2.5,1.13,3.84,3.12,3.81s3-1.42,3-3.79c0-13.42,0-40.66,0-41.22,0-.86,1.22-1.09,1.22,0,0,4.53,0,14.47,0,14.91a2.46,2.46,0,0,0,4.91,0c.07-1.77,0-15.35,0-20.37C755.08,217.57,753.19,215.68,749.57,215.67Z" transform="translate(-11.59 -0.87)"/><path class="cls-3" d="M747.25,207.28a4.94,4.94,0,1,0-5,4.82A4.83,4.83,0,0,0,747.25,207.28Z" transform="translate(-11.59 -0.87)"/><path class="cls-3" d="M786.1,215.67H771.6c-3.61,0-5.51,1.9-5.52,5.51,0,5-.06,18.6,0,20.37a2.46,2.46,0,0,0,4.92,0c0-.44,0-10.38,0-14.91,0-1,1.22-.82,1.22,0,0,.56,0,27.8,0,41.22,0,2.37,1.1,3.74,3,3.79s3.1-1.31,3.12-3.81c0-3.52,0-19.62,0-22.5a.44.44,0,1,1,.87,0c0,2.88,0,19,0,22.5,0,2.5,1.13,3.84,3.12,3.81s3-1.42,3-3.79c0-13.42,0-40.66,0-41.22,0-.86,1.22-1.09,1.22,0,0,4.53,0,14.47,0,14.91a2.46,2.46,0,0,0,4.91,0c.07-1.77,0-15.35,0-20.37C791.62,217.57,789.73,215.68,786.1,215.67Z" transform="translate(-11.59 -0.87)"/><path class="cls-3" d="M783.79,207.28a4.94,4.94,0,1,0-5,4.82A4.83,4.83,0,0,0,783.79,207.28Z" transform="translate(-11.59 -0.87)"/><path class="cls-3" d="M822.64,215.67h-14.5c-3.61,0-5.51,1.9-5.52,5.51,0,5-.06,18.6,0,20.37a2.46,2.46,0,0,0,4.92,0c0-.44,0-10.38,0-14.91,0-1,1.22-.82,1.22,0,0,.56,0,27.8,0,41.22,0,2.37,1.1,3.74,3,3.79s3.1-1.31,3.12-3.81c0-3.52,0-19.62,0-22.5a.44.44,0,1,1,.87,0c0,2.88,0,19,0,22.5,0,2.5,1.13,3.84,3.12,3.81s3-1.42,3-3.79c0-13.42,0-40.66,0-41.22,0-.86,1.22-1.09,1.22,0,0,4.53,0,14.47,0,14.91a2.39,2.39,0,0,0,2.47,2.36,2.36,2.36,0,0,0,2.43-2.38c.08-1.77,0-15.35,0-20.37C828.16,217.57,826.27,215.68,822.64,215.67Z" transform="translate(-11.59 -0.87)"/><path class="cls-3" d="M820.33,207.28a4.94,4.94,0,1,0-5,4.82A4.83,4.83,0,0,0,820.33,207.28Z" transform="translate(-11.59 -0.87)"/><path class="cls-3" d="M713,215.67H698.52c-3.61,0-5.51,1.9-5.52,5.51,0,5,0,18.6,0,20.37a2.46,2.46,0,0,0,4.92,0c0-.44,0-10.38,0-14.91,0-1,1.21-.82,1.21,0,0,.56,0,27.8,0,41.22,0,2.37,1.09,3.74,3,3.79s3.11-1.31,3.12-3.81c0-3.52,0-19.62,0-22.5a.44.44,0,1,1,.87,0c0,2.88,0,19,0,22.5,0,2.5,1.14,3.84,3.12,3.81s3-1.42,3-3.79c0-13.42,0-40.66,0-41.22,0-.86,1.22-1.09,1.22,0,0,4.53,0,14.47,0,14.91a2.46,2.46,0,0,0,4.91,0c.08-1.77,0-15.35,0-20.37C718.54,217.57,716.65,215.68,713,215.67Z" transform="translate(-11.59 -0.87)"/><path class="cls-3" d="M710.71,207.28a4.94,4.94,0,1,0-5,4.82A4.83,4.83,0,0,0,710.71,207.28Z" transform="translate(-11.59 -0.87)"/></g></g></g></svg>